<svg width="16" height="16" viewBox="0 0 16 16" fill="none" xmlns="http://www.w3.org/2000/svg">
<path d="M8 9.12L10.32 11.44C10.4667 11.5867 10.6533 11.66 10.88 11.66C11.1067 11.66 11.2933 11.5867 11.44 11.44C11.5867 11.2933 11.66 11.1067 11.66 10.88C11.66 10.6533 11.5867 10.4667 11.44 10.32L9.12 8L11.44 5.68C11.5867 5.53333 11.66 5.34667 11.66 5.12C11.66 4.89333 11.5867 4.70667 11.44 4.56C11.2933 4.41333 11.1067 4.34 10.88 4.34C10.6533 4.34 10.4667 4.41333 10.32 4.56L8 6.88L5.68 4.56C5.53333 4.41333 5.34667 4.34 5.12 4.34C4.89333 4.34 4.70667 4.41333 4.56 4.56C4.41333 4.70667 4.34 4.89333 4.34 5.12C4.34 5.34667 4.41333 5.53333 4.56 5.68L6.88 8L4.56 10.32C4.41333 10.4667 4.34 10.6533 4.34 10.88C4.34 11.1067 4.41333 11.2933 4.56 11.44C4.70667 11.5867 4.89333 11.66 5.12 11.66C5.34667 11.66 5.53333 11.5867 5.68 11.44L8 9.12ZM8 16C6.89333 16 5.85333 15.79 4.88 15.37C3.90667 14.95 3.06 14.38 2.34 13.66C1.62 12.94 1.05 12.0933 0.63 11.12C0.21 10.1467 0 9.10667 0 8C0 6.89333 0.21 5.85333 0.63 4.88C1.05 3.90667 1.62 3.06 2.34 2.34C3.06 1.62 3.90667 1.05 4.88 0.63C5.85333 0.21 6.89333 0 8 0C9.10667 0 10.1467 0.21 11.12 0.63C12.0933 1.05 12.94 1.62 13.66 2.34C14.38 3.06 14.95 3.90667 15.37 4.88C15.79 5.85333 16 6.89333 16 8C16 9.10667 15.79 10.1467 15.37 11.12C14.95 12.0933 14.38 12.94 13.66 13.66C12.94 14.38 12.0933 14.95 11.12 15.37C10.1467 15.79 9.10667 16 8 16ZM8 14.4C9.78667 14.4 11.3 13.78 12.54 12.54C13.78 11.3 14.4 9.78667 14.4 8C14.4 6.21333 13.78 4.7 12.54 3.46C11.3 2.22 9.78667 1.6 8 1.6C6.21333 1.6 4.7 2.22 3.46 3.46C2.22 4.7 1.6 6.21333 1.6 8C1.6 9.78667 2.22 11.3 3.46 12.54C4.7 13.78 6.21333 14.4 8 14.4Z" fill="#A8B2BE"/>
</svg>
