<svg width="21" height="20" viewBox="0 0 21 20" fill="none" xmlns="http://www.w3.org/2000/svg">
<path d="M3.625 10.25H17.375M3.625 13.375H17.375M3.625 16.5H17.375M5.1875 4H15.8125C16.2269 4 16.6243 4.16462 16.9174 4.45765C17.2104 4.75067 17.375 5.1481 17.375 5.5625C17.375 5.9769 17.2104 6.37433 16.9174 6.66735C16.6243 6.96038 16.2269 7.125 15.8125 7.125H5.1875C4.7731 7.125 4.37567 6.96038 4.08265 6.66735C3.78962 6.37433 3.625 5.9769 3.625 5.5625C3.625 5.1481 3.78962 4.75067 4.08265 4.45765C4.37567 4.16462 4.7731 4 5.1875 4Z" stroke="#C5C5C5" stroke-width="1.5" stroke-linecap="round" stroke-linejoin="round"/>
</svg>
