<svg width="24" height="24" viewBox="0 0 24 24" fill="none" xmlns="http://www.w3.org/2000/svg">
<mask id="mask0_289_551" style="mask-type:luminance" maskUnits="userSpaceOnUse" x="0" y="0" width="24" height="24">
<path d="M24 0H0V24H24V0Z" fill="white"/>
</mask>
<g mask="url(#mask0_289_551)">
<path d="M23.0808 11.9024L22.2808 11.8966V11.9024H23.0808ZM16.6715 22.999H15.8715C15.8715 23.4408 16.2296 23.799 16.6715 23.799V22.999ZM7.32948 22.999V23.799C7.77138 23.799 8.12948 23.4408 8.12948 22.999H7.32948ZM0.920176 11.9024H1.72018L1.72008 11.897L0.920176 11.9024ZM1.46568 10.6507L0.925478 10.0605L0.923876 10.062L1.46568 10.6507ZM12.0005 1.00879L12.5406 0.41859C12.2349 0.13879 11.7661 0.13879 11.4604 0.41859L12.0005 1.00879ZM22.5353 10.6507L23.0769 10.0619L23.0754 10.0605L22.5353 10.6507ZM23.8808 11.9082C23.8833 11.5611 23.8127 11.2177 23.6742 10.8999L22.2075 11.5392C22.2568 11.6524 22.2817 11.7741 22.2808 11.8966L23.8808 11.9082ZM23.8808 21.3075V11.9024H22.2808V21.3075H23.8808ZM23.1448 23.0716C23.6156 22.6047 23.8808 21.9701 23.8808 21.3075H22.2808C22.2808 21.542 22.187 21.7681 22.0181 21.9355L23.1448 23.0716ZM21.3761 23.799C22.0384 23.799 22.6747 23.5381 23.1448 23.0716L22.0181 21.9355C21.8489 22.1033 21.618 22.199 21.3761 22.199V23.799ZM16.6715 23.799H21.3761V22.199H16.6715V23.799ZM15.8715 17.1805V22.999H17.4715V17.1805H15.8715ZM13.0117 14.3207C14.5911 14.3207 15.8715 15.6011 15.8715 17.1805H17.4715C17.4715 14.7175 15.4747 12.7207 13.0117 12.7207V14.3207ZM10.9894 14.3207H13.0117V12.7207H10.9894V14.3207ZM8.12948 17.1805C8.12948 15.6011 9.40988 14.3207 10.9894 14.3207V12.7207C8.52628 12.7207 6.52948 14.7175 6.52948 17.1805H8.12948ZM8.12948 22.999V17.1805H6.52948V22.999H8.12948ZM2.62478 23.799H7.32948V22.199H2.62478V23.799ZM0.855978 23.0715C1.32608 23.5379 1.96248 23.799 2.62478 23.799V22.199C2.38298 22.199 2.15218 22.1036 1.98288 21.9356L0.855978 23.0715ZM0.120177 21.3075C0.120177 21.9702 0.385478 22.6047 0.855978 23.0715L1.98288 21.9356C1.81398 21.7681 1.72018 21.5419 1.72018 21.3075H0.120177ZM0.120177 11.9024V21.3075H1.72018V11.9024H0.120177ZM0.326777 10.9C0.188177 11.2178 0.117777 11.5611 0.120177 11.9079L1.72008 11.897C1.71928 11.7741 1.74418 11.6523 1.79348 11.5392L0.326777 10.9ZM0.923876 10.062C0.668776 10.2968 0.465277 10.5821 0.326777 10.9L1.79348 11.5392C1.84278 11.426 1.91558 11.3238 2.00738 11.2393L0.923876 10.062ZM11.4604 0.41859L0.925478 10.0605L2.00578 11.2408L12.5406 1.59889L11.4604 0.41859ZM23.0754 10.0605L12.5406 0.41859L11.4604 1.59889L21.9952 11.2408L23.0754 10.0605ZM23.6742 10.8999C23.5357 10.5821 23.3322 10.2968 23.0769 10.0619L21.9936 11.2394C22.0854 11.3238 22.1581 11.426 22.2075 11.5392L23.6742 10.8999Z" fill="#929292"/>
</g>
</svg>
