<svg width="19" height="18" viewBox="0 0 19 18" fill="none" xmlns="http://www.w3.org/2000/svg">
<path d="M7.301 2.25H4.0625C3.61495 2.25 3.18572 2.42779 2.86926 2.74426C2.55279 3.06072 2.375 3.48995 2.375 3.9375V7.176C2.375 7.62375 2.55275 8.0535 2.86925 8.36925L10.055 15.555C10.5792 16.0792 11.39 16.209 12.0103 15.8025C13.5715 14.78 14.905 13.4465 15.9275 11.8853C16.334 11.265 16.2042 10.4542 15.68 9.93L8.495 2.745C8.33827 2.58808 8.15215 2.46359 7.94727 2.37865C7.74239 2.29372 7.52278 2.25 7.301 2.25Z" stroke="#C5C5C5" stroke-width="1.125" stroke-linecap="round" stroke-linejoin="round"/>
<path d="M4.625 4.5H4.631V4.506H4.625V4.5Z" stroke="#C5C5C5" stroke-width="1.125" stroke-linecap="round" stroke-linejoin="round"/>
</svg>
