<svg width="22" height="22" viewBox="0 0 22 22" fill="none" xmlns="http://www.w3.org/2000/svg">
<path d="M3.09375 2.75C2.14408 2.75 1.375 3.52 1.375 4.46875V5.15625C1.375 6.10592 2.145 6.875 3.09375 6.875H18.9062C19.855 6.875 20.625 6.105 20.625 5.15625V4.46875C20.625 3.51908 19.855 2.75 18.9062 2.75H3.09375Z" fill="#FB7B0D"/>
<path fill-rule="evenodd" clip-rule="evenodd" d="M2.83008 8.25L3.32508 16.6613C3.36621 17.3613 3.67313 18.019 4.18309 18.5002C4.69305 18.9814 5.36753 19.2496 6.06866 19.25H15.9292C16.6307 19.25 17.3056 18.982 17.816 18.5008C18.3263 18.0196 18.6335 17.3616 18.6747 16.6613L19.1706 8.25H2.83008ZM8.45199 10.8579C8.5809 10.7292 8.75564 10.6569 8.93783 10.6569C9.12002 10.6569 9.29475 10.7292 9.42366 10.8579L11.0003 12.4346L12.577 10.8579C12.6399 10.7904 12.7158 10.7362 12.8002 10.6986C12.8845 10.661 12.9755 10.6408 13.0678 10.6392C13.1602 10.6376 13.2519 10.6546 13.3375 10.6891C13.4231 10.7237 13.5008 10.7752 13.5661 10.8405C13.6314 10.9057 13.6829 10.9835 13.7174 11.0691C13.752 11.1547 13.769 11.2464 13.7674 11.3387C13.7657 11.431 13.7455 11.5221 13.708 11.6064C13.6704 11.6907 13.6162 11.7666 13.5487 11.8296L11.972 13.4062L13.5487 14.9829C13.6162 15.0459 13.6704 15.1218 13.708 15.2061C13.7455 15.2904 13.7657 15.3815 13.7674 15.4738C13.769 15.5661 13.752 15.6578 13.7174 15.7434C13.6829 15.829 13.6314 15.9068 13.5661 15.972C13.5008 16.0373 13.4231 16.0888 13.3375 16.1234C13.2519 16.1579 13.1602 16.1749 13.0678 16.1733C12.9755 16.1717 12.8845 16.1515 12.8002 16.1139C12.7158 16.0763 12.6399 16.0221 12.577 15.9546L11.0003 14.3779L9.42366 15.9546C9.36072 16.0221 9.28482 16.0763 9.20049 16.1139C9.11616 16.1515 9.02512 16.1717 8.93281 16.1733C8.8405 16.1749 8.7488 16.1579 8.6632 16.1234C8.57759 16.0888 8.49983 16.0373 8.43454 15.972C8.36926 15.9068 8.31779 15.829 8.28322 15.7434C8.24864 15.6578 8.23166 15.5661 8.23329 15.4738C8.23491 15.3815 8.25512 15.2904 8.2927 15.2061C8.33027 15.1218 8.38445 15.0459 8.45199 14.9829L10.0287 13.4062L8.45199 11.8296C8.32325 11.7007 8.25093 11.5259 8.25093 11.3438C8.25093 11.1616 8.32325 10.9868 8.45199 10.8579Z" fill="#FB7B0D"/>
</svg>
