<svg width="21" height="20" viewBox="0 0 21 20" fill="none" xmlns="http://www.w3.org/2000/svg">
<path d="M17.5 5.3125C17.5 7.21083 14.4217 8.75 10.625 8.75C6.82833 8.75 3.75 7.21083 3.75 5.3125M17.5 5.3125C17.5 3.41417 14.4217 1.875 10.625 1.875C6.82833 1.875 3.75 3.41417 3.75 5.3125M17.5 5.3125V14.6875C17.5 16.5858 14.4217 18.125 10.625 18.125C6.82833 18.125 3.75 16.5858 3.75 14.6875V5.3125M17.5 5.3125V8.4375M3.75 5.3125V8.4375M17.5 8.4375V11.5625C17.5 13.4608 14.4217 15 10.625 15C6.82833 15 3.75 13.4608 3.75 11.5625V8.4375M17.5 8.4375C17.5 10.3358 14.4217 11.875 10.625 11.875C6.82833 11.875 3.75 10.3358 3.75 8.4375" stroke="#C5C5C5" stroke-width="1.5" stroke-linecap="round" stroke-linejoin="round"/>
</svg>
