<svg width="59" height="21" viewBox="0 0 59 21" fill="none" xmlns="http://www.w3.org/2000/svg">
<path d="M7.456 20V11.624L7.624 12.8L0.832 3.2H5.488L10.648 10.592L8.56 10.52L13.192 3.2H17.728L11.224 13.064L11.584 11.408V20H7.456ZM22.6804 20.24C21.3684 20.24 20.1924 19.96 19.1524 19.4C18.1124 18.824 17.2964 18.04 16.7044 17.048C16.1124 16.04 15.8164 14.904 15.8164 13.64C15.8164 12.344 16.1124 11.2 16.7044 10.208C17.2964 9.2 18.1124 8.416 19.1524 7.856C20.1924 7.28 21.3684 6.992 22.6804 6.992C24.0084 6.992 25.1844 7.28 26.2084 7.856C27.2484 8.416 28.0644 9.2 28.6564 10.208C29.2484 11.2 29.5444 12.344 29.5444 13.64C29.5444 14.904 29.2484 16.04 28.6564 17.048C28.0644 18.04 27.2484 18.824 26.2084 19.4C25.1844 19.96 24.0084 20.24 22.6804 20.24ZM22.6804 16.928C23.2564 16.928 23.7604 16.784 24.1924 16.496C24.6404 16.208 24.9924 15.816 25.2484 15.32C25.5044 14.824 25.6244 14.264 25.6084 13.64C25.6244 12.984 25.5044 12.408 25.2484 11.912C24.9924 11.4 24.6404 11.008 24.1924 10.736C23.7604 10.448 23.2564 10.304 22.6804 10.304C22.1204 10.304 21.6164 10.448 21.1684 10.736C20.7204 11.024 20.3684 11.416 20.1124 11.912C19.8564 12.408 19.7284 12.984 19.7284 13.64C19.7284 14.264 19.8564 14.824 20.1124 15.32C20.3684 15.816 20.7204 16.208 21.1684 16.496C21.6164 16.784 22.1204 16.928 22.6804 16.928ZM31.384 20V7.256H35.056L35.176 9.56L34.648 9.608C34.824 9.192 35.064 8.824 35.368 8.504C35.672 8.184 36.008 7.92 36.376 7.712C36.76 7.488 37.16 7.32 37.576 7.208C37.992 7.08 38.408 7.016 38.824 7.016C39.464 7.016 40.032 7.112 40.528 7.304C41.04 7.496 41.48 7.808 41.848 8.24C42.232 8.672 42.536 9.248 42.76 9.968L42.184 9.872L42.352 9.536C42.576 9.152 42.848 8.808 43.168 8.504C43.504 8.184 43.872 7.912 44.272 7.688C44.672 7.464 45.08 7.296 45.496 7.184C45.928 7.072 46.344 7.016 46.744 7.016C47.752 7.016 48.592 7.216 49.264 7.616C49.936 8.016 50.44 8.608 50.776 9.392C51.112 10.16 51.28 11.112 51.28 12.248V20H47.416V12.536C47.416 11.784 47.256 11.224 46.936 10.856C46.632 10.472 46.168 10.28 45.544 10.28C45.208 10.28 44.896 10.336 44.608 10.448C44.336 10.544 44.096 10.696 43.888 10.904C43.696 11.096 43.544 11.32 43.432 11.576C43.32 11.832 43.264 12.12 43.264 12.44V20H39.4V12.512C39.4 11.792 39.232 11.24 38.896 10.856C38.576 10.472 38.12 10.28 37.528 10.28C37.208 10.28 36.904 10.336 36.616 10.448C36.344 10.544 36.104 10.696 35.896 10.904C35.704 11.096 35.552 11.32 35.44 11.576C35.328 11.832 35.272 12.12 35.272 12.44V20H31.384ZM54.0619 20V7.256H57.9259V20H54.0619ZM56.0059 4.736C55.2699 4.736 54.6939 4.568 54.2779 4.232C53.8779 3.88 53.6779 3.384 53.6779 2.744C53.6779 2.152 53.8859 1.672 54.3019 1.304C54.7179 0.935999 55.2859 0.751999 56.0059 0.751999C56.7099 0.751999 57.2619 0.927999 57.6619 1.28C58.0779 1.616 58.2859 2.104 58.2859 2.744C58.2859 3.336 58.0779 3.816 57.6619 4.184C57.2619 4.552 56.7099 4.736 56.0059 4.736Z" fill="#FB7B0D"/>
</svg>
