<svg width="19" height="18" viewBox="0 0 19 18" fill="none" xmlns="http://www.w3.org/2000/svg">
<path d="M5.68705 2.24561V3.93311M13.562 2.24561V3.93311M2.87305 14.0581V5.61836C2.87305 5.1708 3.05084 4.74158 3.3673 4.42511C3.68377 4.10865 4.11299 3.93086 4.56055 3.93086H14.6855C15.1331 3.93086 15.5623 4.10865 15.8788 4.42511C16.1953 4.74158 16.373 5.1708 16.373 5.61836V14.0566M16.373 14.0566C16.373 14.5042 16.1953 14.9334 15.8788 15.2498C15.5623 15.5663 15.1331 15.7441 14.6855 15.7441H4.56055C4.11299 15.7441 3.68377 15.5663 3.3673 15.2498C3.05084 14.9334 2.87305 14.5042 2.87305 14.0566V8.4316C2.87305 7.98405 3.05084 7.55483 3.3673 7.23836C3.68377 6.9219 4.11299 6.74411 4.56055 6.74411H14.6855C15.1331 6.74411 15.5623 6.9219 15.8788 7.23836C16.1953 7.55483 16.373 7.98405 16.373 8.4316V14.0566ZM11.3105 9.5566H12.998M6.24805 11.2441H9.62305M9.62455 9.5566H9.6283V9.56111H9.62455V9.5566ZM9.6238 12.9316H9.6283V12.9361H9.6238V12.9316ZM7.9363 12.9324H7.94005V12.9369H7.93705V12.9324H7.9363ZM6.2488 12.9324H6.25255V12.9361H6.24805V12.9324H6.2488ZM11.3113 11.2471H11.315V11.2509H11.3113V11.2471ZM11.3113 12.9324H11.3158V12.9369H11.3113V12.9324ZM12.9988 11.2464H13.0033V11.2501H12.9995L12.9988 11.2464Z" stroke="#C5C5C5" stroke-width="1.125" stroke-linecap="round" stroke-linejoin="round"/>
</svg>
