<svg width="19" height="18" viewBox="0 0 19 18" fill="none" xmlns="http://www.w3.org/2000/svg">
<path d="M1.8125 9.5625V9C1.8125 8.55245 1.99029 8.12323 2.30676 7.80676C2.62322 7.49029 3.05245 7.3125 3.5 7.3125H14.75C15.1976 7.3125 15.6268 7.49029 15.9432 7.80676C16.2597 8.12323 16.4375 8.55245 16.4375 9V9.5625M9.92 4.7325L8.33 3.1425C8.22554 3.03791 8.1015 2.95494 7.96496 2.89832C7.82842 2.84169 7.68206 2.81253 7.53425 2.8125H3.5C3.05245 2.8125 2.62322 2.99029 2.30676 3.30676C1.99029 3.62323 1.8125 4.05245 1.8125 4.5V13.5C1.8125 13.9476 1.99029 14.3768 2.30676 14.6932C2.62322 15.0097 3.05245 15.1875 3.5 15.1875H14.75C15.1976 15.1875 15.6268 15.0097 15.9432 14.6932C16.2597 14.3768 16.4375 13.9476 16.4375 13.5V6.75C16.4375 6.30245 16.2597 5.87323 15.9432 5.55676C15.6268 5.24029 15.1976 5.0625 14.75 5.0625H10.7158C10.4175 5.06224 10.1308 4.94354 9.92 4.7325Z" stroke="#C5C5C5" stroke-width="1.125" stroke-linecap="round" stroke-linejoin="round"/>
</svg>
