<svg width="13" height="12" viewBox="0 0 13 12" fill="none" xmlns="http://www.w3.org/2000/svg">
<path d="M6.5 6.7L7.95 8.15C8.04167 8.24167 8.15833 8.2875 8.3 8.2875C8.44167 8.2875 8.55833 8.24167 8.65 8.15C8.74167 8.05833 8.7875 7.94167 8.7875 7.8C8.7875 7.65833 8.74167 7.54167 8.65 7.45L7.2 6L8.65 4.55C8.74167 4.45833 8.7875 4.34167 8.7875 4.2C8.7875 4.05833 8.74167 3.94167 8.65 3.85C8.55833 3.75833 8.44167 3.7125 8.3 3.7125C8.15833 3.7125 8.04167 3.75833 7.95 3.85L6.5 5.3L5.05 3.85C4.95833 3.75833 4.84167 3.7125 4.7 3.7125C4.55833 3.7125 4.44167 3.75833 4.35 3.85C4.25833 3.94167 4.2125 4.05833 4.2125 4.2C4.2125 4.34167 4.25833 4.45833 4.35 4.55L5.8 6L4.35 7.45C4.25833 7.54167 4.2125 7.65833 4.2125 7.8C4.2125 7.94167 4.25833 8.05833 4.35 8.15C4.44167 8.24167 4.55833 8.2875 4.7 8.2875C4.84167 8.2875 4.95833 8.24167 5.05 8.15L6.5 6.7ZM6.5 11C5.80833 11 5.15833 10.8687 4.55 10.6062C3.94167 10.3437 3.4125 9.9875 2.9625 9.5375C2.5125 9.0875 2.15625 8.55833 1.89375 7.95C1.63125 7.34167 1.5 6.69167 1.5 6C1.5 5.30833 1.63125 4.65833 1.89375 4.05C2.15625 3.44167 2.5125 2.9125 2.9625 2.4625C3.4125 2.0125 3.94167 1.65625 4.55 1.39375C5.15833 1.13125 5.80833 1 6.5 1C7.19167 1 7.84167 1.13125 8.45 1.39375C9.05833 1.65625 9.5875 2.0125 10.0375 2.4625C10.4875 2.9125 10.8437 3.44167 11.1062 4.05C11.3687 4.65833 11.5 5.30833 11.5 6C11.5 6.69167 11.3687 7.34167 11.1062 7.95C10.8437 8.55833 10.4875 9.0875 10.0375 9.5375C9.5875 9.9875 9.05833 10.3437 8.45 10.6062C7.84167 10.8687 7.19167 11 6.5 11ZM6.5 10C7.61667 10 8.5625 9.6125 9.3375 8.8375C10.1125 8.0625 10.5 7.11667 10.5 6C10.5 4.88333 10.1125 3.9375 9.3375 3.1625C8.5625 2.3875 7.61667 2 6.5 2C5.38333 2 4.4375 2.3875 3.6625 3.1625C2.8875 3.9375 2.5 4.88333 2.5 6C2.5 7.11667 2.8875 8.0625 3.6625 8.8375C4.4375 9.6125 5.38333 10 6.5 10Z" fill="#FB7B0D"/>
</svg>
