<svg width="32" height="26" viewBox="0 0 32 26" fill="none" xmlns="http://www.w3.org/2000/svg">
<path d="M11.0893 2.28589L13.8924 10.5266L21.8035 13.4466L13.8924 16.3665L11.0893 24.6073L8.28609 16.3665L0.375 13.4466L8.28609 10.5266L11.0893 2.28589Z" fill="#FFEA5C"/>
<path d="M11.0893 2.49383L13.829 10.5482L13.8393 10.5784L13.8692 10.5894L21.6101 13.4466L13.8692 16.3037L13.8393 16.3148L13.829 16.345L11.0893 24.3993L8.34949 16.345L8.33921 16.3148L8.30928 16.3037L0.56839 13.4466L8.30928 10.5894L8.33921 10.5784L8.34949 10.5482L11.0893 2.49383Z" stroke="#FFB46F" stroke-opacity="0.4" stroke-width="0.133928"/>
<path d="M11.0893 2.28589C11.0893 2.28589 9.71056 7.67579 9.37498 11.2144C9.10175 14.0957 10.1207 16.9287 11.8835 19.224L12.5893 20.143L11.0893 24.6073L8.28609 16.3665L0.375 13.4466L8.28609 10.5266L11.0893 2.28589Z" fill="#FFDE59"/>
<path d="M22.9199 0.5L24.1463 3.9611L27.6074 5.18749L24.1463 6.41387L22.9199 9.87498L21.6935 6.41387L18.2324 5.18749L21.6935 3.9611L22.9199 0.5Z" fill="#FFEA5C"/>
<path d="M22.9199 0.700499L24.0832 3.98347L24.0938 4.01356L24.1239 4.02422L27.4069 5.18749L24.1239 6.35076L24.0938 6.36142L24.0832 6.39151L22.9199 9.67448L21.7566 6.39151L21.746 6.36142L21.7159 6.35076L18.4329 5.18749L21.7159 4.02422L21.746 4.01356L21.7566 3.98347L22.9199 0.700499Z" stroke="#FFB46F" stroke-opacity="0.4" stroke-width="0.133928"/>
<path d="M22.9199 0.5C22.9199 0.5 22.3167 2.76376 22.1699 4.24999C22.0506 5.45751 22.4912 6.64373 23.2492 7.59124L23.5762 7.99998L22.9199 9.87498L21.6935 6.41387L18.2324 5.18749L21.6935 3.9611L22.9199 0.5Z" fill="#FFDE59"/>
<path d="M25.5971 13.447L27.1739 17.897L31.6239 19.4738L27.1739 21.0506L25.5971 25.5006L24.0203 21.0506L19.5703 19.4738L24.0203 17.897L25.5971 13.447Z" fill="#FFEA5C"/>
<path d="M25.5971 13.6475L27.1107 17.9194L27.1214 17.9495L27.1515 17.9601L31.4234 19.4738L27.1515 20.9875L27.1214 20.9981L27.1107 21.0282L25.5971 25.3001L24.0834 21.0282L24.0728 20.9981L24.0427 20.9875L19.7708 19.4738L24.0427 17.9601L24.0728 17.9495L24.0834 17.9194L25.5971 13.6475Z" stroke="#FFB46F" stroke-opacity="0.4" stroke-width="0.133928"/>
<path d="M25.5971 13.447C25.5971 13.447 24.8216 16.3576 24.6328 18.2684C24.4794 19.821 25.0458 21.3461 26.0204 22.5643L26.4408 23.0899L25.5971 25.5006L24.0203 21.0506L19.5703 19.4738L24.0203 17.897L25.5971 13.447Z" fill="#FFDE59"/>
</svg>
