<svg width="27" height="27" viewBox="0 0 27 27" fill="none" xmlns="http://www.w3.org/2000/svg">
<path d="M18.4131 1.54384V8.14439L17.4503 9.33368H2.69375C1.48414 9.33368 0.5 8.34954 0.5 7.13993V2.69302C0.5 1.48341 1.48414 0.499268 2.69375 0.499268H17.4503L18.4131 1.54384Z" fill="#E0F4FF"/>
<path d="M18.4144 1.54384V8.14439L17.4516 9.33368H8.88477V0.499268H17.4516L18.4144 1.54384Z" fill="#BBDCFF"/>
<path d="M26.4999 2.69302V7.13993C26.4999 8.34954 25.5158 9.33368 24.3062 9.33368H17.4502V0.499268H24.3062C25.5158 0.499268 26.4999 1.48341 26.4999 2.69302Z" fill="#737EE6"/>
<path d="M20.891 6.54222L19.8139 5.4651C19.5165 5.16767 19.5165 4.68535 19.8139 4.38788C20.1114 4.09045 20.5937 4.09045 20.8912 4.38788L21.4296 4.92636L23.0653 3.2907C23.3627 2.99327 23.845 2.99327 24.1425 3.2907C24.44 3.58812 24.44 4.07044 24.1425 4.36792L21.9683 6.54217C21.6707 6.83975 21.1885 6.8397 20.891 6.54222Z" fill="#2C3B73"/>
<path d="M14.9264 3.56641C14.9264 3.98738 14.5852 4.32812 14.1647 4.32812H4.30859C3.88813 4.32812 3.54688 3.98738 3.54688 3.56641C3.54688 3.14594 3.88813 2.80469 4.30859 2.80469H14.1647C14.5852 2.80469 14.9264 3.14594 14.9264 3.56641Z" fill="#979FEF"/>
<path d="M16.5157 16.7163V20.6108C16.5157 23.8628 13.8791 26.4994 10.6266 26.4994H7.14398C6.69152 26.4994 6.25125 26.4486 5.82824 26.3516C3.20895 25.7539 1.25488 23.4103 1.25488 20.6108V16.8245C1.25488 15.98 1.93992 15.2945 2.78492 15.2945C3.55477 15.2945 4.19156 15.8637 4.29871 16.6041V7.26393C4.29871 6.41893 4.98324 5.73389 5.82824 5.73389C6.67324 5.73389 7.35828 6.41893 7.35828 7.26393V12.9921C7.41465 12.2019 8.07226 11.5722 8.88375 11.5722C9.72875 11.5722 10.4138 12.2567 10.4138 13.1017V14.5922C10.4834 13.8127 11.1374 13.2003 11.9372 13.2003C12.7685 13.2003 13.4449 13.864 13.4657 14.6907C13.4668 14.7039 13.4668 14.7171 13.4668 14.7303V16.5366C13.5561 15.7764 14.2016 15.1863 14.9856 15.1863C15.8306 15.1863 16.5157 15.8713 16.5157 16.7163Z" fill="#FECFC7"/>
<path d="M16.7568 16.7174V20.6118C16.7568 23.8638 14.1202 26.5004 10.8677 26.5004H6.27832L6.88144 26.0691C9.19073 24.4178 10.3579 21.5955 9.88943 18.7955L9.12489 11.5732C9.96989 11.5732 10.6549 12.2578 10.6549 13.1028V14.5932C10.7245 13.8137 11.3786 13.2013 12.1784 13.2013C13.0097 13.2013 13.6861 13.865 13.7069 14.6917C13.7079 14.7049 13.7079 14.7181 13.7079 14.7313V16.5376C13.7973 15.7774 14.4427 15.1873 15.2268 15.1873C16.0718 15.1873 16.7568 15.8724 16.7568 16.7174Z" fill="#FFB8AD"/>
<path d="M14.9277 3.56641C14.9277 3.98738 14.5865 4.32812 14.166 4.32812H8.88477V2.80469H14.166C14.5865 2.80469 14.9277 3.14594 14.9277 3.56641Z" fill="#737EE6"/>
</svg>
