<svg width="20" height="20" viewBox="0 0 20 20" fill="none" xmlns="http://www.w3.org/2000/svg">
<g clip-path="url(#clip0_200_1699)">
<path d="M2.24453 15.0248C2.56835 15.0248 2.83086 14.7623 2.83086 14.4385C2.83086 14.1147 2.56835 13.8522 2.24453 13.8522C1.92071 13.8522 1.6582 14.1147 1.6582 14.4385C1.6582 14.7623 1.92071 15.0248 2.24453 15.0248Z" fill="#57555C"/>
<path d="M3.90273 16.6833C4.22655 16.6833 4.48906 16.4208 4.48906 16.0969C4.48906 15.7731 4.22655 15.5106 3.90273 15.5106C3.57891 15.5106 3.31641 15.7731 3.31641 16.0969C3.31641 16.4208 3.57891 16.6833 3.90273 16.6833Z" fill="#57555C"/>
<path d="M5.56094 18.3418C5.88476 18.3418 6.14727 18.0793 6.14727 17.7555C6.14727 17.4317 5.88476 17.1692 5.56094 17.1692C5.23712 17.1692 4.97461 17.4317 4.97461 17.7555C4.97461 18.0793 5.23712 18.3418 5.56094 18.3418Z" fill="#3C3A41"/>
<path d="M3.07363 19.1708C3.39745 19.1708 3.65996 18.9083 3.65996 18.5845C3.65996 18.2607 3.39745 17.9982 3.07363 17.9982C2.74981 17.9982 2.4873 18.2607 2.4873 18.5845C2.4873 18.9083 2.74981 19.1708 3.07363 19.1708Z" fill="#3C3A41"/>
<path d="M0.586328 19.9999C0.910148 19.9999 1.17266 19.7374 1.17266 19.4136C1.17266 19.0898 0.910148 18.8273 0.586328 18.8273C0.262508 18.8273 0 19.0898 0 19.4136C0 19.7374 0.262508 19.9999 0.586328 19.9999Z" fill="#57555C"/>
<path d="M1.41543 17.5127C1.73925 17.5127 2.00176 17.2502 2.00176 16.9264C2.00176 16.6026 1.73925 16.3401 1.41543 16.3401C1.09161 16.3401 0.829102 16.6026 0.829102 16.9264C0.829102 17.2502 1.09161 17.5127 1.41543 17.5127Z" fill="#57555C"/>
<path d="M12.1945 11.122L8.8778 7.80536C8.69925 7.6268 8.65511 7.35434 8.76808 7.12883C9.89401 4.87735 11.754 3.01739 14.0054 1.89149C14.2309 1.77852 14.5034 1.82266 14.6819 2.00121L17.9986 5.31789C18.1772 5.49645 18.2213 5.76891 18.1083 5.99442C16.9824 8.2459 15.1225 10.1059 12.871 11.2318C12.6455 11.3447 12.373 11.3006 12.1945 11.122Z" fill="#BB6856"/>
<path d="M8.46341 18.17L1.83009 11.5367C1.60091 11.3075 1.60091 10.9366 1.83009 10.7075L3.90302 8.63457C5.04599 7.4916 6.90591 7.4916 8.04888 8.63457L11.3656 11.9513C12.5085 13.0942 12.5085 14.9541 11.3656 16.0971L9.29263 18.17C9.06345 18.3992 8.69259 18.3992 8.46341 18.17Z" fill="#BB6856"/>
<path d="M13.8535 2.00125C13.3965 1.54417 13.3965 0.799995 13.8535 0.342925C14.3106 -0.114146 15.0548 -0.114146 15.5119 0.342925L19.6577 4.48875C20.1148 4.94582 20.1148 5.69 19.6577 6.14707C19.2006 6.60414 18.4564 6.60414 17.9994 6.14707L13.8535 2.00125Z" fill="#57555C"/>
<path d="M7.21976 8.63455C6.76269 8.17748 6.76269 7.4333 7.21976 6.97623C7.67683 6.51916 8.42101 6.51916 8.87808 6.97623L13.0239 11.122C13.481 11.5791 13.481 12.3233 13.0239 12.7804C12.5668 13.2374 11.8226 13.2374 11.3656 12.7804L7.21976 8.63455Z" fill="#57555C"/>
<path d="M1.00105 19.8282C1.23008 19.5992 1.23 19.228 1.00105 18.999L0.171875 19.8282C0.400859 20.0571 0.772109 20.0571 1.00105 19.8282Z" fill="#3C3A41"/>
<path d="M4.31746 16.5116C4.54648 16.2825 4.54641 15.9113 4.31746 15.6824L3.48828 16.5116C3.7173 16.7405 4.08855 16.7405 4.31746 16.5116Z" fill="#3C3A41"/>
<path d="M11.3652 11.9512L9.70691 10.2928L5.14648 14.8533L8.46316 18.17C8.69234 18.3991 9.0632 18.3991 9.29234 18.17L11.3653 16.097C12.5082 14.9541 12.5082 13.0941 11.3652 11.9512Z" fill="#A24F3C"/>
<path d="M17.9986 5.31787L16.3403 3.65955L10.5361 9.46369L12.1945 11.122C12.373 11.3006 12.6455 11.3447 12.871 11.2317C15.1225 10.1058 16.9824 8.24583 18.1083 5.99439C18.2213 5.76888 18.1772 5.49642 17.9986 5.31787Z" fill="#A24F3C"/>
<path d="M13.0242 11.122L10.9513 9.04907L9.29297 10.7074L11.3659 12.7804C11.823 13.2374 12.5671 13.2374 13.0242 12.7804C13.4813 12.3233 13.4813 11.5791 13.0242 11.122Z" fill="#3C3A41"/>
<path d="M19.658 4.4887L17.5851 2.41577L15.9268 4.07409L17.9997 6.14702C18.4568 6.60409 19.2009 6.60409 19.658 6.14702C20.1151 5.68995 20.1151 4.94581 19.658 4.4887Z" fill="#3C3A41"/>
</g>
<defs>
<clipPath id="clip0_200_1699">
<rect width="20" height="20" fill="white"/>
</clipPath>
</defs>
</svg>
