<svg width="20" height="20" viewBox="0 0 20 20" fill="none" xmlns="http://www.w3.org/2000/svg">
<g clip-path="url(#clip0_200_1578)">
<path d="M18.6756 3.6401V4.99833C18.3153 4.99866 17.9695 4.85574 17.7146 4.60091C17.4598 4.34607 17.3169 4.00038 17.3174 3.6401V2.28186C17.6777 2.28136 18.0235 2.42428 18.2784 2.67912C18.5332 2.93395 18.6761 3.27965 18.6756 3.6401Z" fill="#4E901E"/>
<path d="M9.56551 0.532916L10.5265 1.49389C9.99526 2.02362 9.13576 2.02362 8.60453 1.49389L7.64355 0.532916C8.17478 0.00335082 9.03445 0.00335082 9.56551 0.532916Z" fill="#4E901E"/>
<path d="M10.5268 3.19166H9.84766C9.84766 0.91672 11.3971 0.502054 11.4629 0.485474L11.628 1.1442L11.5454 0.814753L11.6313 1.1432C11.5862 1.15431 10.5268 1.46568 10.5268 3.19166Z" fill="#A78966"/>
<path d="M17.4242 6.19966L16.9443 5.71967C18.5546 4.11008 19.9423 4.91322 20.0004 4.9482L19.654 5.53215C19.6132 5.50943 18.6449 4.97904 17.4242 6.19966Z" fill="#A78966"/>
<path d="M3.45348 2.64524L3.10033 3.95589C2.94199 4.54995 2.40446 4.96362 1.78968 4.96445C1.67047 4.96346 1.55175 4.94737 1.43652 4.91687L1.78968 3.60622C1.94802 3.01216 2.48554 2.59849 3.10033 2.59766C3.21954 2.59865 3.33825 2.61473 3.45348 2.64524Z" fill="#4E901E"/>
<path d="M2.28609 6.38765C1.42294 4.89362 0.350709 5.15409 0.305114 5.1652L0.12207 4.51162C0.188059 4.49288 1.73597 4.0759 2.87419 6.04776L2.28609 6.38765Z" fill="#A78966"/>
<path d="M5.77246 7.94543H14.601V11.6806H5.77246V7.94543Z" fill="#870018"/>
<path d="M2.38009 6.24773C2.67422 6.07795 2.84731 5.74652 3.15918 5.56662C4.45839 4.81654 6.11971 5.26172 6.86979 6.56093C7.50812 7.66681 7.65071 9.67084 6.87824 10.7034C6.74677 10.886 6.57831 11.039 6.38383 11.1524C6.07212 11.3323 5.69559 11.3184 5.40163 11.4882C5.1075 11.658 4.93126 11.991 4.62055 12.1711C4.02881 12.4558 3.34123 12.4636 2.74319 12.1925C1.83444 11.8475 1.05037 11.2372 0.492953 10.441C0.460954 10.3927 0.429452 10.3442 0.400602 10.2942C-0.349643 8.99504 0.0955302 7.33372 1.39474 6.58364C1.70644 6.40358 2.08298 6.41751 2.3771 6.24773H2.38009Z" fill="#BD0022"/>
<path d="M17.3196 5.91058C17.5596 6.15066 17.9247 6.2324 18.1794 6.48773C19.2404 7.54869 19.2404 9.2687 18.1794 10.3295C17.2764 11.2324 15.3774 11.8878 14.179 11.41C13.9682 11.3303 13.7764 11.2071 13.6161 11.0487C13.3617 10.7944 13.2765 10.427 13.0388 10.1869C12.8012 9.94682 12.4313 9.86259 12.1769 9.60975C11.7487 9.11168 11.5631 8.44948 11.6704 7.80153C11.7684 6.83442 12.1549 5.9192 12.7798 5.17476C12.8181 5.13149 12.8564 5.08838 12.8972 5.04743C13.9581 3.98647 15.6781 3.98647 16.7389 5.04743C16.9933 5.30209 17.0785 5.66951 17.3162 5.90942L17.3196 5.91058Z" fill="#E13957"/>
<path d="M0 10.6621H19.6944V19.8302H0V10.6621Z" fill="#957856"/>
<path d="M10.1896 3.05238C10.5292 3.05238 10.845 2.85193 11.205 2.85193C12.7053 2.85193 13.9215 4.06824 13.9215 5.5684C13.9215 6.84522 13.0421 8.65162 11.8569 9.16095C11.652 9.25347 11.4298 9.30205 11.205 9.30354C10.845 9.30354 10.5259 9.10326 10.1863 9.10326C9.84676 9.10326 9.52759 9.30354 9.16764 9.30354C8.51273 9.2543 7.91336 8.91739 7.53103 8.38335C6.91657 7.63029 6.54269 6.70993 6.45797 5.74166C6.45449 5.68396 6.45117 5.6261 6.45117 5.5684C6.45117 4.06824 7.66732 2.85193 9.16764 2.85193C9.52759 2.85193 9.84676 3.05238 10.1863 3.05238H10.1896Z" fill="#D80027"/>
<path d="M2.54645 11.6805C2.82781 11.6805 3.05578 11.9087 3.05578 12.1899C3.05578 12.4712 2.82781 12.6992 2.54645 12.6992C2.26508 12.6992 2.03711 12.4712 2.03711 12.1899C2.03711 11.9087 2.26508 11.6805 2.54645 11.6805Z" fill="#806749"/>
<path d="M2.54645 17.7926C2.82781 17.7926 3.05578 18.0207 3.05578 18.3019C3.05578 18.5833 2.82781 18.8113 2.54645 18.8113C2.26508 18.8113 2.03711 18.5833 2.03711 18.3019C2.03711 18.0207 2.26508 17.7926 2.54645 17.7926Z" fill="#806749"/>
<path d="M17.147 11.6805C17.4284 11.6805 17.6564 11.9087 17.6564 12.1899C17.6564 12.4712 17.4284 12.6992 17.147 12.6992C16.8657 12.6992 16.6377 12.4712 16.6377 12.1899C16.6377 11.9087 16.8657 11.6805 17.147 11.6805Z" fill="#806749"/>
<path d="M17.147 17.7926C17.4284 17.7926 17.6564 18.0207 17.6564 18.3019C17.6564 18.5833 17.4284 18.8113 17.147 18.8113C16.8657 18.8113 16.6377 18.5833 16.6377 18.3019C16.6377 18.0207 16.8657 17.7926 17.147 17.7926Z" fill="#806749"/>
<path d="M0 13.7179H19.6944V16.7739H0V13.7179Z" fill="#A78966"/>
<path d="M2.54645 14.7367C2.82781 14.7367 3.05578 14.9648 3.05578 15.246C3.05578 15.5274 2.82781 15.7554 2.54645 15.7554C2.26508 15.7554 2.03711 15.5274 2.03711 15.246C2.03711 14.9648 2.26508 14.7367 2.54645 14.7367Z" fill="#806749"/>
<path d="M17.148 14.7367C17.4294 14.7367 17.6573 14.9648 17.6573 15.246C17.6573 15.5274 17.4294 15.7554 17.148 15.7554C16.8666 15.7554 16.6387 15.5274 16.6387 15.246C16.6387 14.9648 16.8666 14.7367 17.148 14.7367Z" fill="#806749"/>
<path d="M9.1678 4.54997C9.1678 4.92501 8.86373 5.22908 8.48869 5.22908C8.11365 5.22908 7.80957 4.92501 7.80957 4.54997C7.80957 4.17493 8.11365 3.87085 8.48869 3.87085C8.86373 3.87085 9.1678 4.17493 9.1678 4.54997Z" fill="#E5556F"/>
<path d="M5.09359 6.9268C5.09359 7.30184 4.78951 7.60591 4.41447 7.60591C4.03943 7.60591 3.73535 7.30184 3.73535 6.9268C3.73535 6.55176 4.03943 6.24768 4.41447 6.24768C4.78951 6.24768 5.09359 6.55176 5.09359 6.9268Z" fill="#E5556F"/>
<path d="M4.75334 11.0016H7.4698C7.84484 11.0016 8.14892 11.3057 8.14892 11.6807C8.14892 12.0557 7.84484 12.3598 7.4698 12.3598H4.75334C4.3783 12.3598 4.07422 12.0557 4.07422 11.6807C4.07422 11.3057 4.3783 11.0016 4.75334 11.0016Z" fill="#A78966"/>
</g>
<defs>
<clipPath id="clip0_200_1578">
<rect width="20" height="20" fill="white"/>
</clipPath>
</defs>
</svg>
