<svg width="20" height="20" viewBox="0 0 20 20" fill="none" xmlns="http://www.w3.org/2000/svg">
<g clip-path="url(#clip0_200_1769)">
<path d="M15.6667 2H4.33333C3.59695 2 3 2.59695 3 3.33333V16.6667C3 17.403 3.59695 18 4.33333 18H15.6667C16.403 18 17 17.403 17 16.6667V3.33333C17 2.59695 16.403 2 15.6667 2Z" fill="#02A9F4"/>
<path d="M15.667 2H14.667C15.4034 2 16.0003 2.59695 16.0003 3.33333V16.6667C16.0003 17.403 15.4034 18 14.667 18H15.667C16.4034 18 17.0003 17.403 17.0003 16.6667V3.33333C17.0003 2.59695 16.4034 2 15.667 2Z" fill="#0377BC"/>
<path d="M16.9599 0.71994C16.8699 1.20994 16.5832 1.99994 15.6665 1.99994H4.33321C3.41654 1.99994 3.12988 1.20994 3.03988 0.71994C3.02336 0.623165 3.05065 0.524052 3.11439 0.449377C3.17812 0.374702 3.27171 0.33217 3.36988 0.333273H16.6299C16.728 0.33217 16.8216 0.374702 16.8854 0.449377C16.9491 0.524052 16.9764 0.623165 16.9599 0.71994Z" fill="#3F51B5"/>
<path d="M16.6303 0.333273H15.6303C15.7285 0.33217 15.8221 0.374702 15.8858 0.449377C15.9495 0.524052 15.9768 0.623165 15.9603 0.71994C15.8703 1.20994 15.5837 1.99994 14.667 1.99994H15.667C16.5837 1.99994 16.8703 1.20994 16.9603 0.71994C16.9768 0.623165 16.9495 0.524052 16.8858 0.449377C16.8221 0.374702 16.7285 0.33217 16.6303 0.333273Z" fill="#283593"/>
<path d="M16.9599 19.28C16.9764 19.3768 16.9491 19.4759 16.8854 19.5506C16.8216 19.6252 16.728 19.6678 16.6299 19.6667H3.36988C3.27171 19.6678 3.17812 19.6252 3.11439 19.5506C3.05065 19.4759 3.02336 19.3768 3.03988 19.28C3.12988 18.79 3.41654 18 4.33321 18H15.6665C16.5832 18 16.8699 18.79 16.9599 19.28Z" fill="#3F51B5"/>
<path d="M15.667 18H14.667C15.5837 18 15.8703 18.79 15.9603 19.28C15.9768 19.3768 15.9495 19.4759 15.8858 19.5506C15.8221 19.6252 15.7285 19.6678 15.6303 19.6667H16.6303C16.7285 19.6678 16.8221 19.6252 16.8858 19.5506C16.9495 19.4759 16.9768 19.3768 16.9603 19.28C16.8703 18.79 16.5837 18 15.667 18Z" fill="#283593"/>
<path d="M10 13.3334C12.7614 13.3334 15 11.0948 15 8.33337C15 5.57195 12.7614 3.33337 10 3.33337C7.23858 3.33337 5 5.57195 5 8.33337C5 11.0948 7.23858 13.3334 10 13.3334Z" fill="#F5F5F5"/>
<path d="M10 3.33337C9.83133 3.33337 9.66433 3.34237 9.5 3.35871C12.0538 3.61676 13.9973 5.7666 13.9973 8.33337C13.9973 10.9001 12.0538 13.05 9.5 13.308C9.66433 13.3244 9.83133 13.3334 10 13.3334C12.7614 13.3334 15 11.0948 15 8.33337C15 5.57195 12.7614 3.33337 10 3.33337Z" fill="#CFD8DC"/>
<path d="M13.2388 8.83504L12.3215 9.28871L10.6665 8.33337L12.3215 7.37804L13.2388 7.83337C13.346 7.88595 13.4731 7.87736 13.5722 7.81082C13.6714 7.74429 13.7275 7.62993 13.7194 7.51082C13.7113 7.39172 13.6404 7.28595 13.5332 7.23337L13.0142 6.97671L13.3405 6.78804C13.4445 6.72892 13.5088 6.61862 13.5091 6.499C13.5094 6.37939 13.4455 6.2688 13.3418 6.20922C13.2381 6.14965 13.1104 6.15021 13.0072 6.21071L12.6808 6.39937L12.7178 5.82137C12.7297 5.63728 12.5901 5.47841 12.406 5.46654C12.2219 5.45467 12.0631 5.59428 12.0512 5.77837L11.9845 6.79971L10.3332 7.75604V5.84504L11.1848 5.27837C11.2839 5.21228 11.3402 5.09835 11.3325 4.97949C11.3248 4.86064 11.2543 4.75492 11.1475 4.70216C11.0407 4.6494 10.9139 4.65761 10.8148 4.72371L10.3332 5.04404V4.66671C10.3332 4.48261 10.1839 4.33337 9.99985 4.33337C9.81575 4.33337 9.66651 4.48261 9.66651 4.66671V5.04404L9.18485 4.72271C9.03168 4.62053 8.82469 4.66187 8.72251 4.81504C8.62034 4.96821 8.66168 5.1752 8.81485 5.27737L9.66651 5.84504V7.75604L8.01151 6.80004L7.94485 5.77871C7.93297 5.59461 7.77411 5.455 7.59001 5.46687C7.40592 5.47875 7.26631 5.63761 7.27818 5.82171L7.31518 6.39971L6.98885 6.21104C6.88566 6.15055 6.75796 6.14998 6.65424 6.20956C6.55052 6.26913 6.48667 6.37972 6.48693 6.49933C6.4872 6.61895 6.55153 6.72925 6.65551 6.78837L6.98185 6.97704L6.46651 7.23337C6.30147 7.31502 6.23387 7.515 6.31551 7.68004C6.39716 7.84508 6.59714 7.91269 6.76218 7.83104L7.67951 7.37737L9.33318 8.33337L7.67818 9.28871L6.76085 8.83504C6.65397 8.78246 6.52715 8.7909 6.42818 8.85717C6.3292 8.92345 6.2731 9.03749 6.28101 9.15634C6.28892 9.27519 6.35963 9.3808 6.46651 9.43337L6.98551 9.69004L6.65918 9.87871C6.5552 9.93783 6.49086 10.0481 6.4906 10.1677C6.49034 10.2874 6.55419 10.3979 6.65791 10.4575C6.76163 10.5171 6.88932 10.5165 6.99251 10.456L7.31885 10.2674L7.28185 10.8454C7.27005 11.029 7.40925 11.1874 7.59285 11.1994H7.61485C7.7908 11.1997 7.93674 11.0633 7.94818 10.8877L8.01485 9.86637L9.66651 8.91071V10.8217L8.81485 11.3884C8.71577 11.4545 8.65947 11.5684 8.66717 11.6873C8.67487 11.8061 8.74539 11.9118 8.85217 11.9646C8.95895 12.0173 9.08577 12.0091 9.18485 11.943L9.66651 11.6227V12C9.66651 12.1841 9.81575 12.3334 9.99985 12.3334C10.1839 12.3334 10.3332 12.1841 10.3332 12V11.6227L10.8148 11.944C10.9139 12.0101 11.0407 12.0184 11.1475 11.9656C11.2543 11.9128 11.3248 11.8071 11.3325 11.6883C11.3402 11.5694 11.2839 11.4555 11.1848 11.3894L10.3332 10.8217V8.91071L11.9882 9.86671L12.0548 10.888C12.0663 11.0636 12.2122 11.2001 12.3882 11.1997H12.4102C12.5938 11.1878 12.733 11.0293 12.7212 10.8457L12.6822 10.2667L13.0085 10.4554C13.1117 10.5159 13.2394 10.5164 13.3431 10.4569C13.4468 10.3973 13.5107 10.2867 13.5104 10.1671C13.5102 10.0475 13.4458 9.93716 13.3418 9.87804L13.0155 9.68937L13.5332 9.43337C13.6982 9.35173 13.7658 9.15175 13.6842 8.98671C13.6025 8.82167 13.4026 8.75406 13.2375 8.83571L13.2388 8.83504Z" fill="#02A9F4"/>
<path d="M3.35399 18.0083C3.00285 18.324 2.77551 18.7544 2.71266 19.2223C2.67803 19.4137 2.73045 19.6105 2.85566 19.7593C2.9828 19.912 3.1713 20.0002 3.36999 20H16.6307C16.8294 20.0002 17.0178 19.912 17.145 19.7593C17.2702 19.6105 17.3226 19.4137 17.288 19.2223C17.2251 18.7544 16.9978 18.324 16.6467 18.0083C17.077 17.6967 17.3324 17.198 17.3337 16.6667V3.33333C17.3324 2.80198 17.077 2.30329 16.6467 1.99167C16.9978 1.67599 17.2251 1.24565 17.288 0.777667C17.3226 0.586305 17.2702 0.389464 17.145 0.240667C17.0178 0.0879776 16.8294 -0.000221635 16.6307 4.18281e-07H3.36999C3.1713 -0.000221635 2.9828 0.0879776 2.85566 0.240667C2.73045 0.389464 2.67803 0.586305 2.71266 0.777667C2.77551 1.24565 3.00285 1.67599 3.35399 1.99167C2.92361 2.30329 2.66826 2.80198 2.66699 3.33333V16.6667C2.66826 17.198 2.92361 17.6967 3.35399 18.0083ZM16.6337 19.3333C16.6328 19.3337 16.6318 19.3337 16.631 19.3333H15.667C15.667 19.1492 15.5178 19 15.3337 19C15.1496 19 15.0003 19.1492 15.0003 19.3333H14.3337C14.3337 19.1492 14.1844 19 14.0003 19C13.8162 19 13.667 19.1492 13.667 19.3333V19.335H13.0003V19.3333C13.0003 19.1492 12.8511 19 12.667 19C12.4829 19 12.3337 19.1492 12.3337 19.3333V19.3357H11.667V19.3333C11.667 19.1492 11.5178 19 11.3337 19C11.1496 19 11.0003 19.1492 11.0003 19.3333V19.3367H10.3337V19.3333C10.3337 19.1492 10.1844 19 10.0003 19C9.81623 19 9.66699 19.1492 9.66699 19.3333V19.3373H9.00033V19.3333C9.00033 19.1492 8.85109 19 8.66699 19C8.4829 19 8.33366 19.1492 8.33366 19.3333V19.338H7.66699V19.3333C7.66699 19.1492 7.51775 19 7.33366 19C7.14956 19 7.00033 19.1492 7.00033 19.3333V19.339H6.33366V19.3333C6.33366 19.1492 6.18442 19 6.00033 19C5.81623 19 5.66699 19.1492 5.66699 19.3333V19.3397H5.00033V19.3333C5.00033 19.1492 4.85109 19 4.66699 19C4.4829 19 4.33366 19.1492 4.33366 19.3333V19.3403H3.36866C3.48999 18.6723 3.81433 18.3333 4.33366 18.3333H15.667C16.1863 18.3333 16.5107 18.6723 16.6337 19.3333ZM3.36999 0.666667H4.33366C4.33366 0.850762 4.4829 1 4.66699 1C4.85109 1 5.00033 0.850762 5.00033 0.666667H5.66699C5.66699 0.850762 5.81623 1 6.00033 1C6.18442 1 6.33366 0.850762 6.33366 0.666667H7.00033C7.00033 0.850762 7.14956 1 7.33366 1C7.51775 1 7.66699 0.850762 7.66699 0.666667H8.33366C8.33366 0.850762 8.4829 1 8.66699 1C8.85109 1 9.00033 0.850762 9.00033 0.666667H9.66699C9.66699 0.850762 9.81623 1 10.0003 1C10.1844 1 10.3337 0.850762 10.3337 0.666667H11.0003C11.0003 0.850762 11.1496 1 11.3337 1C11.5178 1 11.667 0.850762 11.667 0.666667H12.3337C12.3337 0.850762 12.4829 1 12.667 1C12.8511 1 13.0003 0.850762 13.0003 0.666667H13.667C13.667 0.850762 13.8162 1 14.0003 1C14.1844 1 14.3337 0.850762 14.3337 0.666667H15.0003C15.0003 0.850762 15.1496 1 15.3337 1C15.5178 1 15.667 0.850762 15.667 0.666667H16.6303C16.5077 1.33 16.184 1.66667 15.667 1.66667H4.33366C3.81433 1.66667 3.48999 1.32767 3.36999 0.666667ZM3.33366 3.33333C3.33366 2.78105 3.78137 2.33333 4.33366 2.33333H15.667C16.2193 2.33333 16.667 2.78105 16.667 3.33333V16.6667C16.667 17.219 16.2193 17.6667 15.667 17.6667H4.33366C3.78137 17.6667 3.33366 17.219 3.33366 16.6667V3.33333Z" fill="black"/>
<path d="M10.0003 13.6667C12.9458 13.6667 15.3337 11.2789 15.3337 8.33333C15.3337 5.38781 12.9458 3 10.0003 3C7.05481 3 4.66699 5.38781 4.66699 8.33333C4.67048 11.2774 7.05625 13.6632 10.0003 13.6667ZM10.0003 3.66667C12.5777 3.66667 14.667 5.75601 14.667 8.33333C14.667 10.9107 12.5777 13 10.0003 13C7.423 13 5.33366 10.9107 5.33366 8.33333C5.33641 5.75715 7.42414 3.66942 10.0003 3.66667Z" fill="black"/>
<path d="M5.66667 14.6666H5.33333C5.14924 14.6666 5 14.8159 5 15C5 15.1841 5.14924 15.3333 5.33333 15.3333H5.66667C5.85076 15.3333 6 15.1841 6 15C6 14.8159 5.85076 14.6666 5.66667 14.6666Z" fill="black"/>
<path d="M14.6667 14.6666H14.3333C14.1492 14.6666 14 14.8159 14 15C14 15.1841 14.1492 15.3333 14.3333 15.3333H14.6667C14.8508 15.3333 15 15.1841 15 15C15 14.8159 14.8508 14.6666 14.6667 14.6666Z" fill="black"/>
<path d="M13.0003 14.6666H7.00033C6.81623 14.6666 6.66699 14.8159 6.66699 15C6.66699 15.1841 6.81623 15.3333 7.00033 15.3333H13.0003C13.1844 15.3333 13.3337 15.1841 13.3337 15C13.3337 14.8159 13.1844 14.6666 13.0003 14.6666Z" fill="black"/>
<path d="M5.66667 16H5.33333C5.14924 16 5 16.1492 5 16.3333C5 16.5174 5.14924 16.6667 5.33333 16.6667H5.66667C5.85076 16.6667 6 16.5174 6 16.3333C6 16.1492 5.85076 16 5.66667 16Z" fill="black"/>
<path d="M14.6667 16H14.3333C14.1492 16 14 16.1492 14 16.3333C14 16.5174 14.1492 16.6667 14.3333 16.6667H14.6667C14.8508 16.6667 15 16.5174 15 16.3333C15 16.1492 14.8508 16 14.6667 16Z" fill="black"/>
<path d="M13.0003 16H7.00033C6.81623 16 6.66699 16.1492 6.66699 16.3333C6.66699 16.5174 6.81623 16.6667 7.00033 16.6667H13.0003C13.1844 16.6667 13.3337 16.5174 13.3337 16.3333C13.3337 16.1492 13.1844 16 13.0003 16Z" fill="black"/>
</g>
<defs>
<clipPath id="clip0_200_1769">
<rect width="20" height="20" fill="white"/>
</clipPath>
</defs>
</svg>
