<svg width="20" height="20" viewBox="0 0 20 20" fill="none" xmlns="http://www.w3.org/2000/svg">
<path d="M16.9402 5.87189C17.019 5.9493 17.0815 6.04174 17.1239 6.14373C17.1663 6.24572 17.1878 6.35519 17.1871 6.46564C17.1873 6.59359 17.1581 6.71987 17.1018 6.83474C17.0454 6.94961 16.9634 7.04999 16.8621 7.12814L14.8121 8.72189L13.8652 7.23752L15.6121 5.87814C15.8217 5.71393 16.0803 5.6248 16.3465 5.62502C16.4569 5.62434 16.5664 5.64584 16.6684 5.68825C16.7704 5.73065 16.8628 5.7931 16.9402 5.87189Z" fill="#B3B3B3"/>
<path d="M12.8125 1.875V2.8125H11.5625V2.1875C11.562 2.02189 11.496 1.86321 11.3789 1.7461C11.2618 1.629 11.1031 1.56299 10.9375 1.5625H9.0625C8.89689 1.56299 8.73821 1.629 8.6211 1.7461C8.504 1.86321 8.43799 2.02189 8.4375 2.1875V2.8125H7.1875V1.875C7.1875 1.4606 7.35212 1.06317 7.64515 0.770146C7.93817 0.47712 8.3356 0.3125 8.75 0.3125H11.25C11.4552 0.3125 11.6584 0.352915 11.8479 0.431438C12.0375 0.509961 12.2098 0.625054 12.3549 0.770146C12.4999 0.915237 12.615 1.08749 12.6936 1.27706C12.7721 1.46663 12.8125 1.66981 12.8125 1.875Z" fill="#CCCCCC"/>
<path d="M13.9062 2.8125C14.1135 2.8125 14.3122 2.89481 14.4587 3.04132C14.6052 3.18784 14.6875 3.38655 14.6875 3.59375C14.6875 3.80095 14.6052 3.99966 14.4587 4.14618C14.3122 4.29269 14.1135 4.375 13.9062 4.375H6.09375C5.88655 4.375 5.68784 4.29269 5.54132 4.14618C5.39481 3.99966 5.3125 3.80095 5.3125 3.59375C5.3125 3.38655 5.39481 3.18784 5.54132 3.04132C5.68784 2.89481 5.88655 2.8125 6.09375 2.8125H13.9062Z" fill="#B3B3B3"/>
<path d="M6.13438 7.2375L5.1875 8.72188L3.1375 7.12813C3.03619 7.04998 2.9542 6.94959 2.89785 6.83473C2.84149 6.71986 2.8123 6.59357 2.8125 6.46563C2.81332 6.24293 2.90215 6.02959 3.05962 5.87212C3.21709 5.71465 3.43043 5.62582 3.65313 5.625C3.91935 5.62478 4.17795 5.71392 4.3875 5.87813L6.13438 7.2375Z" fill="#B3B3B3"/>
<path d="M13.8656 7.2375L14.8125 8.72187H5.1875L6.13437 7.2375C6.41336 6.79606 6.56178 6.28471 6.5625 5.7625V4.375H13.4375V5.7625C13.4382 6.28471 13.5866 6.79606 13.8656 7.2375Z" fill="#CCCCCC"/>
<path d="M11.875 14.3656V11.875L13.4375 13.4375C13.4375 13.4375 13.125 14.375 11.875 14.375V14.3656Z" fill="#808080"/>
<path d="M11.875 14.3656V14.375C11.8752 14.5392 11.843 14.7018 11.7803 14.8536C11.7175 15.0053 11.6255 15.1432 11.5093 15.2593C11.3932 15.3755 11.2553 15.4675 11.1036 15.5303C10.9518 15.593 10.7892 15.6252 10.625 15.625H9.375C9.04348 15.625 8.72554 15.4933 8.49112 15.2589C8.2567 15.0245 8.125 14.7065 8.125 14.375C8.125 14.0435 8.2567 13.7255 8.49112 13.4911C8.72554 13.2567 9.04348 13.125 9.375 13.125H10.625C10.9549 13.125 11.2714 13.2554 11.5056 13.4878C11.7397 13.7202 11.8725 14.0357 11.875 14.3656Z" fill="#CCCCCC"/>
<path d="M8.125 11.875V14.375C6.875 14.375 6.5625 13.4375 6.5625 13.4375L8.125 11.875Z" fill="#808080"/>
<path d="M11.3875 10.8844C11.1688 10.7138 10.8993 10.6213 10.6219 10.6219H9.37813C9.04601 10.6227 8.7277 10.7549 8.49285 10.9898C8.25801 11.2246 8.12574 11.5429 8.125 11.875L6.5625 13.4375C6.5625 13.4375 6.875 14.375 8.125 14.375C8.125 14.7066 8.2567 15.0245 8.49112 15.2589C8.72554 15.4934 9.04348 15.625 9.375 15.625H10.625C10.7892 15.6253 10.9518 15.5931 11.1036 15.5303C11.2553 15.4676 11.3932 15.3755 11.5093 15.2594C11.6255 15.1433 11.7175 15.0054 11.7803 14.8536C11.843 14.7019 11.8752 14.5393 11.875 14.375C13.125 14.375 13.4375 13.4375 13.4375 13.4375L11.875 11.875C11.8753 11.6836 11.8314 11.4946 11.7469 11.3228C11.6624 11.151 11.5394 11.001 11.3875 10.8844ZM15.625 11.5625V16.875H4.375V11.5625C4.3743 10.5582 4.65583 9.57395 5.1875 8.72192H14.8125C15.0798 9.1442 15.284 9.6032 15.4188 10.0844C15.5555 10.5652 15.6249 11.0627 15.625 11.5625Z" fill="#DDC097"/>
<path d="M15.625 16.875V18.4375C15.625 18.769 15.4933 19.087 15.2589 19.3214C15.0245 19.5558 14.7065 19.6875 14.375 19.6875H5.625C5.29348 19.6875 4.97554 19.5558 4.74112 19.3214C4.5067 19.087 4.375 18.769 4.375 18.4375V16.875H15.625Z" fill="#CCCCCC"/>
<path d="M5.62207 12.425C5.53919 12.425 5.4597 12.3921 5.4011 12.3335C5.34249 12.2749 5.30957 12.1954 5.30957 12.1125V11.4875C5.31071 10.9085 5.42759 10.3356 5.65332 9.8025C5.68675 9.72774 5.74819 9.66908 5.82443 9.63916C5.90067 9.60923 5.98561 9.61044 6.06097 9.64251C6.13633 9.67458 6.19609 9.73495 6.22739 9.81063C6.25868 9.88632 6.25902 9.97126 6.22832 10.0472C6.03666 10.5033 5.93684 10.9928 5.93457 11.4875V12.1125C5.93457 12.1954 5.90165 12.2749 5.84304 12.3335C5.78444 12.3921 5.70495 12.425 5.62207 12.425Z" fill="#F7DEB0"/>
<path d="M8.61252 11.1972C8.57257 11.1971 8.533 11.1894 8.49596 11.1744C7.51127 10.7782 7.50002 10.0288 7.50002 9.9969C7.49907 9.91402 7.53108 9.83416 7.58901 9.77488C7.64694 9.7156 7.72605 9.68176 7.80893 9.68081C7.89181 9.67985 7.97167 9.71186 8.03095 9.76979C8.09023 9.82773 8.12407 9.90683 8.12502 9.98971C8.1269 10.0163 8.16283 10.3666 8.7294 10.5944C8.797 10.6213 8.85309 10.671 8.88798 10.7349C8.92288 10.7987 8.93439 10.8728 8.92054 10.9442C8.90669 11.0156 8.86834 11.08 8.81211 11.1262C8.75588 11.1724 8.68529 11.1975 8.61252 11.1972Z" fill="#999999"/>
<path d="M11.388 11.1973C11.3152 11.1976 11.2446 11.1724 11.1884 11.1263C11.1321 11.0801 11.0938 11.0157 11.0799 10.9443C11.0661 10.8728 11.0776 10.7988 11.1125 10.7349C11.1474 10.6711 11.2035 10.6214 11.2711 10.5945C11.8476 10.3626 11.8755 10.0038 11.8755 9.98884C11.8789 9.90672 11.9145 9.82925 11.9746 9.77321C12.0348 9.71718 12.1145 9.68709 12.1967 9.68946C12.2775 9.69069 12.3546 9.7236 12.4114 9.78111C12.4683 9.83862 12.5002 9.91613 12.5005 9.99696C12.5005 10.0282 12.4892 10.7782 11.5045 11.1745C11.4675 11.1894 11.4279 11.1972 11.388 11.1973Z" fill="#999999"/>
<path d="M9.375 14.6875C9.54759 14.6875 9.6875 14.5476 9.6875 14.375C9.6875 14.2024 9.54759 14.0625 9.375 14.0625C9.20241 14.0625 9.0625 14.2024 9.0625 14.375C9.0625 14.5476 9.20241 14.6875 9.375 14.6875Z" fill="#999999"/>
<path d="M10.625 14.6875C10.7976 14.6875 10.9375 14.5476 10.9375 14.375C10.9375 14.2024 10.7976 14.0625 10.625 14.0625C10.4524 14.0625 10.3125 14.2024 10.3125 14.375C10.3125 14.5476 10.4524 14.6875 10.625 14.6875Z" fill="#999999"/>
<path d="M11.3875 10.8843C11.5394 11.0009 11.6624 11.1509 11.7469 11.3227C11.8314 11.4945 11.8753 11.6835 11.875 11.875H10.625C10.4594 11.8745 10.3007 11.8085 10.1836 11.6913C10.0665 11.5742 10.0005 11.4156 10 11.25V10.6218H10.6219C10.8993 10.6212 11.1688 10.7137 11.3875 10.8843Z" fill="#808080"/>
<path d="M11.875 11.875V14.3656C11.8725 14.0357 11.7397 13.7201 11.5056 13.4877C11.2714 13.2553 10.9549 13.1249 10.625 13.125H9.375C9.21079 13.1247 9.04815 13.1569 8.8964 13.2197C8.74465 13.2824 8.60677 13.3745 8.49066 13.4906C8.37454 13.6067 8.28248 13.7446 8.21973 13.8964C8.15699 14.0481 8.1248 14.2107 8.125 14.375V11.875C8.12574 11.5428 8.25801 11.2245 8.49285 10.9897C8.7277 10.7548 9.04601 10.6226 9.37813 10.6218H10V11.25C10.0005 11.4156 10.0665 11.5742 10.1836 11.6913C10.3007 11.8084 10.4594 11.8745 10.625 11.875H11.875Z" fill="#F2F2F2"/>
</svg>
