<svg width="20" height="20" viewBox="0 0 20 20" fill="none" xmlns="http://www.w3.org/2000/svg">
<g clip-path="url(#clip0_200_1659)">
<path d="M14.825 17.931H3.79531C2.79566 17.9303 1.93945 17.2155 1.76082 16.232L0.689453 10.3448H17.9308L16.8618 16.2321C16.6829 17.2162 15.8253 17.9317 14.825 17.931Z" fill="#BF7341"/>
<path d="M4.28027 17.9311H14.8254C15.8251 17.9304 16.6813 17.2156 16.8599 16.2321L17.9313 10.3448H15.6609C12.6554 14.6825 7.4075 16.9249 4.28027 17.9311Z" fill="#B56D3E"/>
<path d="M7.58617 8.96551H3.44824V2.06898C3.44824 0.926211 4.37445 0 5.51719 0C6.65996 0 7.58617 0.926211 7.58617 2.06898V8.96551Z" fill="#C96E23"/>
<path d="M5.04249 5.78637L6.7666 4.40735L6.33585 3.8688L4.61174 5.24783L5.04249 5.78637Z" fill="#B5611D"/>
<path d="M16.8967 8.96554H12.7588V8.27589C12.7588 7.13312 13.685 6.20691 14.8278 6.20691C15.9705 6.20691 16.8968 7.13312 16.8968 8.27589V8.96554H16.8967Z" fill="#C96E23"/>
<path d="M14.4826 7.24133H13.793V7.93098H14.4826V7.24133Z" fill="#B5611D"/>
<path d="M16.2072 7.58618H15.5176V8.27583H16.2072V7.58618Z" fill="#B5611D"/>
<path d="M14.2474 8.96551H9.76465L13.3791 1.13793C13.6981 0.444844 14.3908 0.000703125 15.1536 0H15.2853C15.7295 0 16.1605 0.151016 16.507 0.428633C17.206 0.987617 17.436 1.95 17.0657 2.76484L14.2474 8.96551Z" fill="#D68033"/>
<path d="M13.6536 3.43547L16.0674 2.74536L15.8778 2.08223L13.464 2.77233L13.6536 3.43547Z" fill="#C96E23"/>
<path d="M13.2688 5.71518L13.0605 5.0576L14.8333 4.49866L15.0416 5.15659L13.2688 5.71518Z" fill="#C96E23"/>
<path d="M11.4834 8.25962L13.6621 7.57019L13.454 6.91268L11.2754 7.60211L11.4834 8.25962Z" fill="#C96E23"/>
<path d="M0.689648 8.96545H17.931C18.312 8.96545 18.6207 9.27409 18.6207 9.6551C18.6207 10.0361 18.312 10.3448 17.931 10.3448H0.689648C0.308633 10.3448 0 10.0362 0 9.6551C0 9.27409 0.308633 8.96545 0.689648 8.96545Z" fill="#BF7341"/>
<path d="M16.2066 8.96551V8.27586C16.2066 4.46688 13.119 1.3793 9.31004 1.3793C5.50105 1.3793 2.41348 4.46688 2.41348 8.27586V8.96551H1.03418V8.27586C1.03418 3.70516 4.73934 0 9.31004 0C13.8807 0 17.5859 3.70516 17.5859 8.27586V8.96551H16.2066Z" fill="#965735"/>
<path d="M12.7589 8.96546C12.6637 5.50823 11.1585 2.75854 9.31059 2.75854C7.46266 2.75854 5.9575 5.50819 5.8623 8.96546H12.7589Z" fill="#F09E3E"/>
<path d="M9.38078 6.98787L7.58594 7.58615C7.58629 6.76201 8.11422 6.03064 8.89629 5.77064L10.6894 5.17236C10.6894 5.99615 10.1622 6.72752 9.38078 6.98787Z" fill="#D68033"/>
<path d="M12.4444 6.56006C11.4893 7.58904 10.3306 8.40834 9.04199 8.96557H12.7586C12.7389 8.1549 12.6337 7.34869 12.4444 6.56006Z" fill="#EB9634"/>
<path d="M15.5172 11.7241H13.4482V12.4138H15.5172V11.7241Z" fill="#965735"/>
<path d="M12.069 11.7241H10V12.4138H12.069V11.7241Z" fill="#965735"/>
<path d="M8.62074 11.7241H6.55176V12.4138H8.62074V11.7241Z" fill="#965735"/>
<path d="M5.1725 11.7241H3.10352V12.4138H5.1725V11.7241Z" fill="#965735"/>
<path d="M5.1725 13.7931H3.10352V14.4827H5.1725V13.7931Z" fill="#965735"/>
<path d="M5.1725 15.8621H3.10352V16.5517H5.1725V15.8621Z" fill="#965735"/>
<path d="M5.86254 8.96554H1.72461V8.27589C1.72461 7.13312 2.65082 6.20691 3.79359 6.20691C4.93637 6.20691 5.86258 7.13312 5.86258 8.27589V8.96554H5.86254Z" fill="#D68033"/>
<path d="M5.86234 8.2759C5.8627 7.6652 5.5927 7.0859 5.12477 6.69348C4.65855 7.67176 3.88406 8.47004 2.91992 8.96555H5.86234V8.2759Z" fill="#D97A27"/>
<path d="M3.44844 7.24133H2.75879V7.93098H3.44844V7.24133Z" fill="#C96E23"/>
<path d="M4.82734 7.58618H4.1377V8.27583H4.82734V7.58618Z" fill="#C96E23"/>
<path d="M17.5858 10.6896H1.72375C1.5334 10.6896 1.37891 10.5352 1.37891 10.3448C1.37891 10.1545 1.5334 10 1.72375 10H17.5858C17.7762 10 17.9307 10.1545 17.9307 10.3448C17.9307 10.5352 17.7762 10.6896 17.5858 10.6896Z" fill="#965735"/>
<path d="M20.0002 14.8276C20.0002 15.399 19.5371 15.8621 18.9657 15.8621V19.3104C18.9657 19.6914 18.657 20 18.276 20H7.93117C7.55016 20 7.24152 19.6914 7.24152 19.3104V15.8621C6.67016 15.8621 6.20703 15.399 6.20703 14.8276C6.20703 14.2562 6.67012 13.7931 7.24152 13.7931H18.9657C19.5371 13.7931 20.0002 14.2562 20.0002 14.8276Z" fill="#F09E3E"/>
<path d="M17.7163 15.8621C17.7104 15.8686 17.7035 15.8741 17.6977 15.8807C16.748 17.8807 15.0425 19.1983 13.5918 20H18.2763C18.6573 20 18.9659 19.6914 18.9659 19.3103V15.8621H17.7163Z" fill="#F09235"/>
<path d="M13.7932 14.8276C13.7932 15.399 13.3302 15.8621 12.7587 15.8621V19.3104C12.7587 19.6914 12.4501 20 12.0691 20H7.93117C7.55016 20 7.24152 19.6914 7.24152 19.3104V15.8621C6.67016 15.8621 6.20703 15.399 6.20703 14.8276C6.20703 14.2562 6.67012 13.7931 7.24152 13.7931H12.7587C13.3302 13.7931 13.7932 14.2562 13.7932 14.8276Z" fill="#F0DBC2"/>
<path d="M17.5861 14.8276H16.8965V15.5173H17.5861V14.8276Z" fill="#D68033"/>
<path d="M15.8615 15.8622H15.1719V16.5518H15.8615V15.8622Z" fill="#D68033"/>
<path d="M17.9309 17.5863H17.2412V18.276H17.9309V17.5863Z" fill="#D68033"/>
<path d="M14.4826 18.2759H13.793V18.9655H14.4826V18.2759Z" fill="#D68033"/>
</g>
<defs>
<clipPath id="clip0_200_1659">
<rect width="20" height="20" fill="white"/>
</clipPath>
</defs>
</svg>
