<svg width="20" height="20" viewBox="0 0 20 20" fill="none" xmlns="http://www.w3.org/2000/svg">
<g clip-path="url(#clip0_200_1633)">
<path d="M16.6834 4.25497C15.7503 4.71662 14.5623 4.64888 13.7237 4.92947C13.2371 4.35255 12.685 3.76294 12.4307 3.04595C13.7963 2.13048 15.2158 1.67025 15.7589 1.51568C15.8899 1.47837 16.0269 1.54908 16.0728 1.67732C16.2223 2.09525 16.533 3.06271 16.6834 4.25497Z" fill="#6DC847"/>
<path d="M16.055 8.81328C14.4098 12.013 10.0312 13.0414 10.0312 13.0414C10.0312 13.0414 8.3203 8.88223 9.96554 5.68246C10.5493 4.54723 11.4769 3.68527 12.4312 3.0459C12.8515 3.46512 13.2896 3.93109 13.7267 4.4391C13.8161 4.54301 13.9581 4.58711 14.0898 4.5491C14.8824 4.32055 15.7992 4.24641 16.6839 4.25488C16.8592 5.64051 16.8177 7.33008 16.055 8.81328Z" fill="#4EB229"/>
<path d="M10.0306 13.3351C9.98548 13.3351 9.93962 13.3246 9.89665 13.3025C9.75251 13.2284 9.69572 13.0514 9.76986 12.9073L14.0946 4.49627C14.1687 4.35217 14.3456 4.2953 14.4898 4.36948C14.634 4.44358 14.6908 4.62057 14.6166 4.76471L10.2919 13.1757C10.2399 13.2769 10.1371 13.3351 10.0306 13.3351Z" fill="#3F8E20"/>
<path d="M19.9958 6.13926C19.8444 6.92555 19.2338 9.52223 17.5084 11.3204C16.5326 9.76586 15.1215 7.40727 14.7109 5.66512C16.8867 5.16707 19.1035 5.65598 19.8077 5.84074C19.9393 5.87531 20.0215 6.0057 19.9958 6.13926Z" fill="#8DD470"/>
<path d="M17.5084 11.3205C17.1669 11.6761 16.7819 12.0006 16.3485 12.2736C13.304 14.1909 9.01172 12.8481 9.01172 12.8481C9.01172 12.8481 9.65512 8.39696 12.6997 6.47962C13.3326 6.08091 14.0196 5.82329 14.711 5.66528C15.9075 7.27013 16.9814 9.18665 17.5084 11.3205Z" fill="#6DC847"/>
<path d="M9.01162 13.1414C8.91412 13.1414 8.81877 13.0929 8.76295 13.0043C8.67658 12.8671 8.71775 12.6859 8.8549 12.5995L16.8579 7.5598C16.9952 7.47348 17.1763 7.51461 17.2627 7.6518C17.3491 7.78894 17.3079 7.97019 17.1708 8.05656L9.16775 13.0963C9.11916 13.1269 9.0651 13.1414 9.01162 13.1414Z" fill="#4EB229"/>
<path d="M5.37449 14.2048C5.52324 14.9474 5.71371 15.7761 5.54742 16.5013C5.29465 16.3533 5.05156 16.1804 4.82176 15.9828C1.71352 13.3124 0.476679 8.91896 0.023945 6.63353C-0.13168 5.84701 0.491992 5.12334 1.29344 5.15885C2.37547 5.20682 3.9332 5.35396 5.60223 5.76557C5.61195 8.49701 4.7609 11.1445 5.37449 14.2048Z" fill="#D97C41"/>
<path d="M11.7978 15.4391C10.2199 17.2915 7.57243 17.6886 5.54704 16.5013C5.17091 15.8696 4.90079 15.1709 4.75204 14.4284C4.13845 11.3681 4.75446 8.24816 5.60189 5.76562C7.48778 6.23086 9.51599 7.03352 11.1624 8.41348C13.2612 10.172 13.5732 13.3544 11.7978 15.4391Z" fill="#C76D33"/>
<path d="M11.7888 15.7433C11.7211 15.7433 11.6531 15.72 11.5977 15.6724L7.22039 11.9116C7.09746 11.806 7.0834 11.6207 7.18907 11.4977C7.29465 11.3747 7.47996 11.3608 7.60293 11.4664L11.9802 15.2272C12.1031 15.3328 12.1172 15.5181 12.0115 15.6411C11.9535 15.7086 11.8714 15.7433 11.7888 15.7433Z" fill="#495560"/>
<path d="M10.5062 15.9154C8.86139 15.9154 7.20033 15.1203 5.55123 13.54C3.89803 11.9557 2.66381 9.94551 2.07521 8.88836C1.99635 8.74672 2.04724 8.56801 2.18889 8.48915C2.33053 8.41028 2.50928 8.46122 2.58806 8.60282C3.1606 9.63122 4.35963 11.585 5.95736 13.1162C7.9033 14.981 9.83951 15.6708 11.7122 15.1664C11.8688 15.1242 12.0297 15.2169 12.0719 15.3735C12.1141 15.53 12.0213 15.6911 11.8648 15.7332C11.4137 15.8547 10.9605 15.9154 10.5062 15.9154Z" fill="#AF602D"/>
<path d="M11.7896 15.7433C11.7786 15.7433 11.7676 15.7427 11.7564 15.7414C11.5954 15.7233 11.4795 15.5781 11.4975 15.417C11.7141 13.4897 10.7405 11.6795 8.60383 10.0368C6.84945 8.68789 4.7373 7.79691 3.63445 7.38582C3.48258 7.32922 3.40531 7.16019 3.46191 7.00832C3.51855 6.85644 3.68765 6.77922 3.83945 6.83582C4.97324 7.25836 7.14636 8.1757 8.96164 9.5714C11.2725 11.3481 12.322 13.337 12.0809 15.4826C12.064 15.6325 11.937 15.7433 11.7896 15.7433Z" fill="#AF602D"/>
<path d="M15.6379 16.0734C7.77925 15.3185 7.06121 3.03476 9.85968 2.39233C9.96168 2.44112 10.0596 2.5044 10.1507 2.58222C12.0524 4.20851 15.4976 7.65858 16.4136 11.9545C16.7268 13.4228 16.4067 14.8975 15.6379 16.0734Z" fill="#E4996D"/>
<path d="M15.6375 16.0735C14.9745 17.0881 13.9769 17.8807 12.7637 18.2561C12.6141 18.1945 12.4109 18.1563 12.2409 18.1911C12.0621 18.2277 11.9041 18.3118 11.7298 18.4663C9.0168 18.7448 6.48539 16.9196 5.93863 14.1908C5.06504 9.83282 6.94168 5.2511 8.08055 2.99552C8.41879 2.32591 9.22105 2.0836 9.85922 2.39239C7.89914 4.19887 9.3964 14.0545 15.6375 16.0735Z" fill="#D97C41"/>
<path d="M11.1858 5.7289C11.101 5.59077 10.9203 5.54761 10.7821 5.63245C10.644 5.7173 10.6008 5.89804 10.6856 6.03616C11.3546 7.12519 12.5663 9.29968 13.166 11.6273C13.8303 14.2055 13.5792 16.2606 12.4211 17.7469L11.3076 12.1922C11.2758 12.0333 11.1213 11.9303 10.9622 11.9621C10.8032 11.9939 10.7002 12.1486 10.7321 12.3075L11.8455 17.8622C10.204 16.9371 9.18029 15.1376 8.79955 12.5025C8.45584 10.1236 8.73592 7.65003 8.93346 6.38734C8.95853 6.22718 8.849 6.07706 8.68885 6.05198C8.52904 6.02698 8.37857 6.13648 8.35353 6.29659C8.15088 7.59191 7.86389 10.1314 8.21857 12.5864C8.42068 13.9851 8.80549 15.1845 9.36224 16.1511C9.95607 17.182 10.7515 17.9587 11.7301 18.4663C11.9078 18.4481 12.0862 18.4209 12.265 18.3843C12.4351 18.3494 12.6014 18.3064 12.764 18.2561C13.4693 17.4113 13.9026 16.3891 14.0529 15.2108C14.1942 14.1044 14.087 12.8494 13.7344 11.4808C13.1156 9.07878 11.872 6.84605 11.1858 5.7289Z" fill="#C76D33"/>
</g>
<defs>
<clipPath id="clip0_200_1633">
<rect width="20" height="20" fill="white"/>
</clipPath>
</defs>
</svg>
