<svg width="20" height="20" viewBox="0 0 20 20" fill="none" xmlns="http://www.w3.org/2000/svg">
<g clip-path="url(#clip0_200_1601)">
<path d="M11.862 1.82838C11.862 1.82838 10.3093 1.09998 9.09739 0.750488C8.69606 0.634746 8.26301 0.728223 7.94555 0.999629C5.92962 2.72303 4.69856 4.79225 4.10048 5.98396C3.85551 6.47205 4.1404 7.05936 4.67532 7.16916L6.79907 7.60518L11.862 1.82838Z" fill="#556C77"/>
<path d="M0.244848 14.094L4.00356 15.9443L5.84875 19.6927C6.04286 20.0871 6.63196 19.9816 6.67731 19.5445L7.40688 12.5094L0.391333 13.2657C-0.0447222 13.3127 -0.148628 13.9003 0.244848 14.094Z" fill="#7C96A6"/>
<path d="M4.01465 15.967L5.84863 19.6926C6.04273 20.087 6.63184 19.9815 6.67719 19.5444L7.39914 12.5825L4.01465 15.967Z" fill="#556C77"/>
<path d="M5.17339 14.422C5.18702 14.613 5.33307 14.7678 5.52288 14.7934C6.82347 14.9684 11.8482 15.3099 16.1377 11.0204C20.3824 6.77568 20.0924 1.81118 19.9163 0.447513C19.8886 0.232903 19.7135 0.0675907 19.4976 0.0530595C18.0858 -0.0417843 12.8305 -0.0993233 8.92429 3.80689C4.9785 7.75275 5.07722 13.0752 5.17339 14.422Z" fill="#ABCCD1"/>
<path d="M19.7925 0.189819L5.29785 14.6844C5.35809 14.742 5.43609 14.7816 5.52367 14.7934C6.82426 14.9684 11.849 15.3099 16.1385 11.0204C20.3832 6.77572 20.0932 1.81123 19.9171 0.447554C19.9041 0.347358 19.8588 0.258179 19.7925 0.189819Z" fill="#7C96A6"/>
<path d="M16.3071 3.16251C16.6607 3.16251 16.9473 2.87591 16.9473 2.52236C16.9473 2.16881 16.6607 1.8822 16.3071 1.8822C15.9536 1.8822 15.667 2.16881 15.667 2.52236C15.667 2.87591 15.9536 3.16251 16.3071 3.16251Z" fill="#556C77"/>
<path d="M13.0705 4.40906C13.5871 5.46168 14.3792 6.38023 15.1891 6.86621C15.2869 6.92484 15.3945 6.95281 15.5007 6.95281C15.7069 6.95281 15.9079 6.84773 16.0217 6.65809C16.1941 6.3707 16.1009 5.99793 15.8135 5.82551C14.6254 5.11262 13.2684 2.93609 13.7573 1.0109C13.7734 0.947578 13.7786 0.884141 13.7746 0.822266C13.3446 0.968906 12.9076 1.1416 12.4691 1.34441C12.3662 2.3282 12.5724 3.39426 13.0705 4.40906Z" fill="#DDE8EE"/>
<path d="M19.7709 17.767C20.113 18.1091 20.0645 18.6759 19.6707 18.9569C18.7207 19.6348 17.6033 19.9736 16.486 19.9739C15.0806 19.9735 13.6753 19.4376 12.6028 18.3652C11.5304 17.2927 10.9945 15.8874 10.9941 14.482C10.9944 13.3647 11.3332 12.2473 12.0111 11.2973C12.2921 10.9035 12.8589 10.8549 13.201 11.1971L19.7709 17.767Z" fill="#FFE493"/>
<path d="M13.2011 11.197C12.859 10.8549 12.2922 10.9035 12.0112 11.2973C11.3428 12.234 11.0048 13.3333 10.9951 14.435H16.439L13.2011 11.197Z" fill="#FFE493"/>
<path d="M16.4389 14.4349H10.995C10.9949 14.4506 10.9941 14.4663 10.9941 14.482C10.9945 15.8873 11.5304 17.2927 12.6028 18.3651L16.486 14.482L16.4389 14.4349Z" fill="#FFBC6C"/>
<path d="M19.7711 17.767L16.5332 14.5291V19.973C17.6348 19.9634 18.7342 19.6253 19.6709 18.9569C20.0647 18.6759 20.1132 18.1091 19.7711 17.767Z" fill="#FFBC6C"/>
<path d="M16.4867 14.4821L12.6035 18.3652C13.676 19.4377 15.0813 19.9736 16.4867 19.9739C16.5024 19.9739 16.518 19.9731 16.5337 19.973V14.5291L16.4867 14.4821Z" fill="#FFE493"/>
<path d="M15.8136 5.82548C15.5192 5.64888 15.2145 5.38232 14.9301 5.05212L14.0723 5.90994C14.422 6.30521 14.8035 6.63482 15.1891 6.86623C15.2869 6.92486 15.3945 6.95283 15.5007 6.95283C15.7069 6.95283 15.9079 6.84775 16.0217 6.6581C16.1941 6.37068 16.1009 5.9979 15.8136 5.82548Z" fill="#ABCCD1"/>
</g>
<defs>
<clipPath id="clip0_200_1601">
<rect width="20" height="20" fill="white"/>
</clipPath>
</defs>
</svg>
