<svg width="26" height="18" viewBox="0 0 26 18" fill="none" xmlns="http://www.w3.org/2000/svg">
<path d="M21.3096 15.4529V15.7288L20.4817 16.8326H13.8591L13.0312 15.7288V15.4529H21.3096Z" fill="#CFD8DC"/>
<path d="M21.3091 15.4529V15.7288L20.4812 16.8326H17.1699V15.4529H21.3091Z" fill="#B0BEC5"/>
<path d="M21.3096 3.03542V3.31136H13.0312V3.03542L13.8591 1.6557V1.37976H20.4817V1.6557L21.3096 3.03542Z" fill="#CFD8DC"/>
<path d="M21.3091 3.03542V3.31136H17.1699V1.37976H20.4812V1.6557L21.3091 3.03542Z" fill="#B0BEC5"/>
<path d="M13.0312 3.0354H21.3096V15.7288H13.0312V3.0354Z" fill="#E53A35"/>
<path d="M17.1699 3.0354H21.3091V15.7288H17.1699V3.0354Z" fill="#D32E2E"/>
<path d="M21.034 1.2418C21.0341 1.29617 21.0234 1.35003 21.0027 1.40028C20.9819 1.45053 20.9514 1.49619 20.913 1.53464C20.8745 1.57309 20.8289 1.60358 20.7786 1.62435C20.7284 1.64513 20.6745 1.65578 20.6201 1.65571H13.7215C13.6118 1.65571 13.5065 1.6121 13.4289 1.53448C13.3512 1.45685 13.3076 1.35157 13.3076 1.2418C13.3076 1.13202 13.3512 1.02674 13.4289 0.949114C13.5065 0.87149 13.6118 0.827881 13.7215 0.827881H20.6201C20.6745 0.827809 20.7284 0.838465 20.7786 0.859241C20.8289 0.880016 20.8745 0.910502 20.913 0.948952C20.9514 0.987402 20.9819 1.03306 21.0027 1.08331C21.0234 1.13356 21.0341 1.18742 21.034 1.2418Z" fill="#90A4AE"/>
<path d="M21.0331 1.2418C21.0332 1.29617 21.0225 1.35003 21.0018 1.40028C20.981 1.45053 20.9505 1.49619 20.9121 1.53464C20.8736 1.57309 20.828 1.60358 20.7777 1.62435C20.7274 1.64513 20.6736 1.65578 20.6192 1.65571H17.1699V0.827881H20.6192C20.6736 0.827809 20.7274 0.838465 20.7777 0.859241C20.828 0.880016 20.8736 0.910502 20.9121 0.948952C20.9505 0.987402 20.981 1.03306 21.0018 1.08331C21.0225 1.13356 21.0332 1.18742 21.0331 1.2418Z" fill="#78909C"/>
<path d="M21.31 10.3783V11.1537L18.3463 8.21768C18.2946 8.16558 18.2656 8.09516 18.2656 8.02176C18.2656 7.94836 18.2946 7.87794 18.3463 7.82584C18.3719 7.80025 18.4022 7.77995 18.4356 7.7661C18.469 7.75225 18.5047 7.74512 18.5409 7.74512C18.577 7.74512 18.6128 7.75225 18.6462 7.7661C18.6796 7.77995 18.7099 7.80025 18.7354 7.82584L21.31 10.3783Z" fill="#B0BEC5"/>
<path d="M15.9673 10.9081C15.942 10.9345 15.9115 10.9554 15.8778 10.9697C15.8442 10.9839 15.8079 10.9911 15.7714 10.9909C15.699 10.9906 15.6296 10.9618 15.5782 10.9109L13.0312 8.386V7.6106L15.9673 10.519C15.9929 10.5446 16.0132 10.5749 16.027 10.6083C16.0409 10.6417 16.048 10.6774 16.048 10.7136C16.048 10.7497 16.0409 10.7855 16.027 10.8189C16.0132 10.8523 15.9929 10.8826 15.9673 10.9081Z" fill="#CFD8DC"/>
<path d="M17.1704 11.5897C18.3896 11.5897 19.378 10.6013 19.378 9.38211C19.378 8.16291 18.3896 7.17456 17.1704 7.17456C15.9512 7.17456 14.9629 8.16291 14.9629 9.38211C14.9629 10.6013 15.9512 11.5897 17.1704 11.5897Z" fill="#CFD8DC"/>
<path d="M19.3775 9.38211C19.3775 9.67203 19.3205 9.95913 19.2096 10.227C19.0987 10.4949 18.9361 10.7383 18.7311 10.9433C18.5261 11.1483 18.2827 11.3109 18.0148 11.4218C17.7469 11.5327 17.4598 11.5897 17.1699 11.5897V7.17456C17.4598 7.17448 17.7469 7.23153 18.0148 7.34244C18.2827 7.45335 18.5261 7.61595 18.7311 7.82096C18.9361 8.02596 19.0987 8.26935 19.2096 8.53722C19.3205 8.80509 19.3775 9.09219 19.3775 9.38211Z" fill="#B0BEC5"/>
<path d="M17.1703 11.0378C18.0847 11.0378 18.826 10.2965 18.826 9.3821C18.826 8.4677 18.0847 7.72644 17.1703 7.72644C16.2559 7.72644 15.5146 8.4677 15.5146 9.3821C15.5146 10.2965 16.2559 11.0378 17.1703 11.0378Z" fill="#FCB316"/>
<path d="M18.8256 9.3821C18.8252 9.8211 18.6507 10.242 18.3403 10.5524C18.0298 10.8629 17.6089 11.0374 17.1699 11.0378V7.72644C17.6089 7.72679 18.0298 7.90134 18.3403 8.21176C18.6507 8.52218 18.8252 8.9431 18.8256 9.3821Z" fill="#F9A01B"/>
<path d="M1.30371 7.49646H8.34027V9.58137H1.30371V7.49646Z" fill="#E53A35"/>
<path d="M8.33984 7.49646H15.3764V9.58137H8.33984V7.49646Z" fill="#D32E2E"/>
<path d="M15.8978 6.9752V7.49643C15.8976 7.56549 15.8701 7.63165 15.8212 7.68048C15.7724 7.72931 15.7062 7.75684 15.6372 7.75704H1.04284C0.973784 7.75684 0.907616 7.72931 0.858786 7.68048C0.809956 7.63165 0.782433 7.56549 0.782227 7.49643V6.9752C0.782227 4.09543 4.16499 1.76294 8.34001 1.76294C12.515 1.76294 15.8978 4.09543 15.8978 6.9752Z" fill="#FAA629"/>
<path d="M15.8976 6.9752V7.49643C15.8974 7.56549 15.8699 7.63165 15.8211 7.68048C15.7722 7.72931 15.7061 7.75684 15.637 7.75704H8.33984V1.76294C12.5149 1.76294 15.8976 4.09543 15.8976 6.9752Z" fill="#F78C1F"/>
<path d="M1.30371 10.1025H15.3768V12.1874H1.30371V10.1025Z" fill="#6D4D42"/>
<path d="M8.33984 10.1025H15.3764V12.1874H8.33984V10.1025Z" fill="#5E4137"/>
<path d="M1.30371 12.7087H15.3768V14.7936H1.30371V12.7087Z" fill="#6D4D42"/>
<path d="M8.33984 12.7087H15.3764V14.7936H8.33984V12.7087Z" fill="#5E4137"/>
<path d="M15.8978 14.7936V15.5754C15.8978 15.921 15.7605 16.2524 15.5161 16.4968C15.2718 16.7412 14.9403 16.8785 14.5947 16.8785H2.08529C1.7397 16.8785 1.40826 16.7412 1.16389 16.4968C0.919513 16.2524 0.782227 15.921 0.782227 15.5754V14.7936C0.782227 14.7245 0.809684 14.6582 0.858558 14.6093C0.907433 14.5604 0.973721 14.533 1.04284 14.533H15.6372C15.7063 14.533 15.7726 14.5604 15.8215 14.6093C15.8703 14.6582 15.8978 14.7245 15.8978 14.7936Z" fill="#FAA629"/>
<path d="M15.8976 14.7936V15.5754C15.8976 15.921 15.7603 16.2524 15.516 16.4968C15.2716 16.7412 14.9402 16.8785 14.5946 16.8785H8.33984V14.533H15.637C15.7061 14.533 15.7724 14.5604 15.8213 14.6093C15.8702 14.6582 15.8976 14.7245 15.8976 14.7936Z" fill="#F78C1F"/>
<path d="M15.8978 12.4481C15.8968 12.586 15.8416 12.718 15.744 12.8156C15.6465 12.9131 15.5145 12.9683 15.3766 12.9693H14.8553C13.7686 12.9693 13.7686 13.4906 12.6818 13.4906C11.5951 13.4906 11.5951 12.9693 10.5109 12.9693C9.42416 12.9693 9.42416 13.4906 8.34001 13.4906H8.3374C7.25325 13.4906 7.25325 12.9693 6.1665 12.9693C5.07974 12.9693 5.07974 13.4906 3.99559 13.4906C2.90883 13.4906 2.90883 12.9693 1.82468 12.9693H1.30345C1.16534 12.9689 1.033 12.9139 0.935338 12.8162C0.837677 12.7186 0.782632 12.5862 0.782227 12.4481C0.783223 12.3102 0.838457 12.1782 0.935991 12.0806C1.03352 11.9831 1.16552 11.9279 1.30345 11.9269H15.3766C15.5147 11.9273 15.647 11.9823 15.7447 12.08C15.8423 12.1777 15.8974 12.31 15.8978 12.4481Z" fill="#7CB342"/>
<path d="M15.8976 12.4481C15.8966 12.586 15.8414 12.718 15.7439 12.8156C15.6463 12.9131 15.5143 12.9683 15.3764 12.9693H14.8552C13.7684 12.9693 13.7684 13.4906 12.6817 13.4906C11.5949 13.4906 11.5949 12.9693 10.5108 12.9693C9.424 12.9693 9.42399 13.4906 8.33984 13.4906V11.9269H15.3764C15.5145 11.9273 15.6469 11.9823 15.7445 12.08C15.8422 12.1777 15.8972 12.31 15.8976 12.4481Z" fill="#679F42"/>
<path d="M15.8978 9.84191C15.8974 9.98002 15.8423 10.1124 15.7447 10.21C15.647 10.3077 15.5147 10.3627 15.3766 10.3631H5.99449L3.90958 12.448L2.03317 10.3631H1.30345C1.16552 10.3621 1.03353 10.3069 0.935998 10.2094C0.838466 10.1118 0.783229 9.97983 0.782227 9.84191C0.782632 9.70379 0.837677 9.57145 0.935338 9.47379C1.033 9.37613 1.16534 9.32108 1.30345 9.32068H15.3766C15.5145 9.32167 15.6465 9.37691 15.744 9.47444C15.8416 9.57198 15.8968 9.70398 15.8978 9.84191Z" fill="#FDD837"/>
<path d="M15.8976 9.84191C15.8972 9.98002 15.8422 10.1124 15.7445 10.21C15.6469 10.3077 15.5145 10.3627 15.3764 10.3631H8.33984V9.32068H15.3764C15.5143 9.32167 15.6463 9.37691 15.7439 9.47444C15.8414 9.57198 15.8966 9.70398 15.8976 9.84191Z" fill="#F9BF2C"/>
<path d="M8.33971 3.58725C8.2706 3.58725 8.20431 3.5598 8.15543 3.51092C8.10656 3.46205 8.0791 3.39576 8.0791 3.32664V2.80541C8.0791 2.73629 8.10656 2.67001 8.15543 2.62113C8.20431 2.57226 8.2706 2.5448 8.33971 2.5448C8.40883 2.5448 8.47512 2.57226 8.524 2.62113C8.57287 2.67001 8.60033 2.73629 8.60033 2.80541V3.32664C8.60033 3.39576 8.57287 3.46205 8.524 3.51092C8.47512 3.5598 8.40883 3.58725 8.33971 3.58725Z" fill="#FFE0B2"/>
<path d="M8.33971 6.97519C8.2706 6.97519 8.20431 6.94773 8.15543 6.89886C8.10656 6.84999 8.0791 6.7837 8.0791 6.71458V6.19335C8.0791 6.12423 8.10656 6.05795 8.15543 6.00907C8.20431 5.9602 8.2706 5.93274 8.33971 5.93274C8.40883 5.93274 8.47512 5.9602 8.524 6.00907C8.57287 6.05795 8.60033 6.12423 8.60033 6.19335V6.71458C8.60033 6.7837 8.57287 6.84999 8.524 6.89886C8.47512 6.94773 8.40883 6.97519 8.33971 6.97519Z" fill="#FFE0B2"/>
<path d="M8.6002 5.15099H8.07897C8.00985 5.15099 7.94357 5.12353 7.89469 5.07466C7.84582 5.02578 7.81836 4.95949 7.81836 4.89037C7.81836 4.82126 7.84582 4.75497 7.89469 4.70609C7.94357 4.65722 8.00985 4.62976 8.07897 4.62976H8.6002C8.66932 4.62976 8.73561 4.65722 8.78448 4.70609C8.83335 4.75497 8.86081 4.82126 8.86081 4.89037C8.86081 4.95949 8.83335 5.02578 8.78448 5.07466C8.73561 5.12353 8.66932 5.15099 8.6002 5.15099Z" fill="#FFE0B2"/>
<path d="M11.2066 3.58727H10.6854C10.6163 3.58727 10.55 3.55981 10.5011 3.51093C10.4523 3.46206 10.4248 3.39577 10.4248 3.32665C10.4248 3.25753 10.4523 3.19125 10.5011 3.14237C10.55 3.0935 10.6163 3.06604 10.6854 3.06604H11.2066C11.2758 3.06604 11.3421 3.0935 11.3909 3.14237C11.4398 3.19125 11.4673 3.25753 11.4673 3.32665C11.4673 3.39577 11.4398 3.46206 11.3909 3.51093C11.3421 3.55981 11.2758 3.58727 11.2066 3.58727Z" fill="#FFE0B2"/>
<path d="M12.5094 5.67214C12.465 5.6721 12.4214 5.66072 12.3826 5.63907C12.3438 5.61742 12.3112 5.58623 12.2879 5.54844C12.2646 5.51065 12.2513 5.46753 12.2493 5.42317C12.2473 5.3788 12.2567 5.33467 12.2765 5.29495L12.5372 4.77373C12.5681 4.7119 12.6223 4.66488 12.6879 4.64302C12.7534 4.62115 12.825 4.62624 12.8869 4.65715C12.9487 4.68807 12.9957 4.74228 13.0176 4.80786C13.0394 4.87344 13.0343 4.94501 13.0034 5.00684L12.7428 5.52807C12.7211 5.5714 12.6878 5.60784 12.6466 5.63329C12.6054 5.65874 12.5579 5.67219 12.5094 5.67214Z" fill="#FFE0B2"/>
<path d="M10.6854 5.93271C10.6163 5.93271 10.55 5.90525 10.5011 5.85638C10.4523 5.80751 10.4248 5.74122 10.4248 5.6721V5.15087C10.4248 5.08175 10.4523 5.01547 10.5011 4.96659C10.55 4.91772 10.6163 4.89026 10.6854 4.89026C10.7545 4.89026 10.8208 4.91772 10.8697 4.96659C10.9186 5.01547 10.946 5.08175 10.946 5.15087V5.6721C10.946 5.74122 10.9186 5.80751 10.8697 5.85638C10.8208 5.90525 10.7545 5.93271 10.6854 5.93271Z" fill="#FFE0B2"/>
<path d="M14.0729 6.97521H13.5516C13.4825 6.97521 13.4162 6.94775 13.3673 6.89887C13.3185 6.85 13.291 6.78371 13.291 6.71459C13.291 6.64547 13.3185 6.57919 13.3673 6.53031C13.4162 6.48144 13.4825 6.45398 13.5516 6.45398H14.0729C14.142 6.45398 14.2083 6.48144 14.2571 6.53031C14.306 6.57919 14.3335 6.64547 14.3335 6.71459C14.3335 6.78371 14.306 6.85 14.2571 6.89887C14.2083 6.94775 14.142 6.97521 14.0729 6.97521Z" fill="#FFE0B2"/>
<path d="M5.99473 3.58727H5.4735C5.40438 3.58727 5.3381 3.55981 5.28922 3.51093C5.24035 3.46206 5.21289 3.39577 5.21289 3.32665C5.21289 3.25753 5.24035 3.19125 5.28922 3.14237C5.3381 3.0935 5.40438 3.06604 5.4735 3.06604H5.99473C6.06385 3.06604 6.13014 3.0935 6.17901 3.14237C6.22789 3.19125 6.25534 3.25753 6.25534 3.32665C6.25534 3.39577 6.22789 3.46206 6.17901 3.51093C6.13014 3.55981 6.06385 3.58727 5.99473 3.58727Z" fill="#FFE0B2"/>
<path d="M4.16994 5.67211C4.1215 5.67217 4.074 5.65872 4.03278 5.63327C3.99155 5.60783 3.95823 5.5714 3.93657 5.52807L3.67595 5.00684C3.66065 4.97623 3.65152 4.9429 3.64909 4.90876C3.64667 4.87461 3.65099 4.84033 3.66181 4.80786C3.67264 4.77538 3.68975 4.74536 3.71218 4.7195C3.73461 4.69365 3.76191 4.67246 3.79252 4.65715C3.82314 4.64185 3.85647 4.63272 3.89061 4.63029C3.92475 4.62787 3.95904 4.63219 3.99151 4.64302C4.02398 4.65384 4.05401 4.67096 4.07986 4.69338C4.10572 4.71581 4.12691 4.74311 4.14222 4.77373L4.40283 5.29495C4.42269 5.33467 4.43207 5.3788 4.43008 5.42316C4.42809 5.46752 4.4148 5.51064 4.39147 5.54842C4.36814 5.5862 4.33555 5.6174 4.29678 5.63904C4.25801 5.66069 4.21435 5.67207 4.16994 5.67211Z" fill="#FFE0B2"/>
<path d="M5.99401 5.93271C5.92489 5.93271 5.8586 5.90525 5.80973 5.85638C5.76086 5.80751 5.7334 5.74122 5.7334 5.6721V5.15087C5.7334 5.08175 5.76086 5.01547 5.80973 4.96659C5.8586 4.91772 5.92489 4.89026 5.99401 4.89026C6.06313 4.89026 6.12942 4.91772 6.17829 4.96659C6.22717 5.01547 6.25462 5.08175 6.25462 5.15087V5.6721C6.25462 5.74122 6.22717 5.80751 6.17829 5.85638C6.12942 5.90525 6.06313 5.93271 5.99401 5.93271Z" fill="#FFE0B2"/>
<path d="M3.12754 6.97521H2.60632C2.5372 6.97521 2.47091 6.94775 2.42204 6.89887C2.37316 6.85 2.3457 6.78371 2.3457 6.71459C2.3457 6.64547 2.37316 6.57919 2.42204 6.53031C2.47091 6.48144 2.5372 6.45398 2.60632 6.45398H3.12754C3.19666 6.45398 3.26295 6.48144 3.31182 6.53031C3.3607 6.57919 3.38816 6.64547 3.38816 6.71459C3.38816 6.78371 3.3607 6.85 3.31182 6.89887C3.26295 6.94775 3.19666 6.97521 3.12754 6.97521Z" fill="#FFE0B2"/>
</svg>
