<svg width="20" height="20" viewBox="0 0 20 20" fill="none" xmlns="http://www.w3.org/2000/svg">
<path d="M15.3125 11.6593C15.3125 13.0683 14.7528 14.4195 13.7565 15.4158C12.7602 16.4121 11.409 16.9718 10 16.9718C8.59104 16.9718 7.23978 16.4121 6.2435 15.4158C5.24721 14.4195 4.6875 13.0683 4.6875 11.6593C4.6875 8.72495 7.06562 3.02808 10 3.02808C12.9344 3.02808 15.3125 8.72495 15.3125 11.6593Z" fill="url(#paint0_linear_200_1259)"/>
<path opacity="0.5" d="M11.3064 6.94993C11.788 6.94993 12.1783 6.55958 12.1783 6.07805C12.1783 5.59653 11.788 5.20618 11.3064 5.20618C10.8249 5.20618 10.4346 5.59653 10.4346 6.07805C10.4346 6.55958 10.8249 6.94993 11.3064 6.94993Z" fill="white"/>
<defs>
<linearGradient id="paint0_linear_200_1259" x1="10" y1="3.02808" x2="10" y2="15.8968" gradientUnits="userSpaceOnUse">
<stop stop-color="#FDDEA7"/>
<stop offset="1" stop-color="#F7C872"/>
</linearGradient>
</defs>
</svg>
