<svg width="20" height="20" viewBox="0 0 20 20" fill="none" xmlns="http://www.w3.org/2000/svg">
<g clip-path="url(#clip0_200_1616)">
<path d="M16.5662 18.0245C17.0342 15.3734 17.2803 12.6878 17.3018 9.9957C17.2803 7.30363 17.0342 4.61819 16.5662 1.96693L17.344 1.18875C17.6079 0.915533 17.6041 0.481137 17.3355 0.212508C17.0669 -0.0561206 16.6325 -0.059861 16.3593 0.204007L15.5658 0.997312C15.5658 0.997312 13.4717 0.246172 9.98971 0.246172C6.50773 0.246172 4.41379 0.997312 4.41379 0.997312L3.62014 0.204007C3.34692 -0.059861 2.91253 -0.0561206 2.6439 0.212508C2.37527 0.481137 2.37153 0.915533 2.6354 1.18875L3.4134 1.96693C2.96931 4.62125 2.72347 7.30499 2.67756 9.9957C2.72347 12.6866 2.96931 15.3701 3.4134 18.0245L2.6354 18.8026C2.4545 18.9776 2.3819 19.2365 2.44549 19.48C2.50924 19.7235 2.69949 19.9135 2.94296 19.9773C3.18643 20.0411 3.44536 19.9685 3.62014 19.7874L4.41379 18.9943C6.23026 19.4934 8.10573 19.7461 9.98971 19.7452C11.8737 19.7461 13.7491 19.4934 15.5658 18.9943L16.3593 19.7874C16.6325 20.0513 17.0669 20.0475 17.3355 19.7789C17.6041 19.5103 17.6079 19.0759 17.344 18.8026L16.5662 18.0245Z" fill="#A2783B"/>
<path d="M14.516 9.99568C14.516 12.4956 12.4894 14.5222 9.98946 14.5222C7.48951 14.5222 5.46289 12.4956 5.46289 9.99568C5.46289 7.49573 7.48951 5.46912 9.98946 5.46912C12.4894 5.46912 14.516 7.49573 14.516 9.99568Z" fill="#F9D28D"/>
<path d="M19.0284 11.0493L18.332 11.0312C18.3378 10.8027 18.3421 10.5725 18.3446 10.3405L19.041 10.3474C19.0386 10.5834 19.0345 10.8174 19.0284 11.0493Z" fill="#F9D28D"/>
<path d="M18.3456 9.65071C18.3175 7.68479 18.1708 5.72261 17.9062 3.77454L18.5967 3.68188C18.8648 5.65852 19.0136 7.64977 19.042 9.64442L18.3456 9.65071Z" fill="#F9D28D"/>
<path d="M1.39795 16.3085C1.11351 14.2159 0.959476 12.1075 0.936523 9.99571C0.936523 9.44281 0.951145 8.85149 0.980048 8.2384L1.67644 8.27105C1.64754 8.87342 1.63292 9.45352 1.63292 9.99571C1.65553 12.0772 1.80787 14.1554 2.08874 16.218L1.39795 16.3085Z" fill="#F9D28D"/>
<path d="M9.64062 4.77271H10.337V15.2186H9.64062V4.77271Z" fill="#D69F44"/>
<path d="M11.0342 5.46912H11.7306V7.9065H11.0342V5.46912Z" fill="#D69F44"/>
<path d="M8.24805 5.46912H8.94444V7.2101H8.24805V5.46912Z" fill="#D69F44"/>
<path d="M11.382 7.55835H12.0784V8.25474C12.0784 9.02408 11.455 9.64753 10.6857 9.64753H9.98926V8.95114C9.98926 8.18198 10.6129 7.55835 11.382 7.55835Z" fill="#ECAF4A"/>
<path d="M9.98957 8.95112H9.29318C8.52402 8.95112 7.90039 8.32767 7.90039 7.55833V6.86194H8.59679C9.36612 6.86194 9.98957 7.48557 9.98957 8.25473V8.95112Z" fill="#ECAF4A"/>
<path d="M11.382 9.64746H12.0784V10.3439C12.0784 11.1132 11.455 11.7366 10.6857 11.7366H9.98926V11.0403C9.98926 10.2711 10.6129 9.64746 11.382 9.64746Z" fill="#ECAF4A"/>
<path d="M9.98957 11.0404H9.29318C8.52402 11.0404 7.90039 10.4169 7.90039 9.64757V8.95117H8.59679C9.36612 8.95117 9.98957 9.5748 9.98957 10.344V11.0404Z" fill="#ECAF4A"/>
<path d="M11.382 11.7367H12.0784V12.4331C12.0784 13.2024 11.455 13.8259 10.6857 13.8259H9.98926V13.1295C9.98926 12.3603 10.6129 11.7367 11.382 11.7367Z" fill="#ECAF4A"/>
<path d="M9.98957 13.1295H9.29318C8.52402 13.1295 7.90039 12.506 7.90039 11.7367V11.0403H8.59679C9.36612 11.0403 9.98957 11.6639 9.98957 12.4331V13.1295Z" fill="#ECAF4A"/>
<path d="M15.5656 18.9943L16.3315 19.7603C16.5735 20.0131 16.9619 20.0561 17.2534 19.8623C17.4207 19.7436 17.5271 19.5573 17.5444 19.3527C17.5616 19.1484 17.4878 18.9467 17.3428 18.8017L16.565 18.0235C17.0332 15.3728 17.2797 12.6875 17.3016 9.99578C17.28 7.30371 17.034 4.61827 16.566 1.96701L17.3176 1.21535C17.5704 0.973419 17.6135 0.584927 17.4196 0.293686C17.3011 0.126218 17.1146 0.0197864 16.9103 0.00261458C16.7057 -0.0147273 16.5041 0.0590606 16.3591 0.204086L15.5656 0.997391C15.5656 0.997391 15.3663 0.927684 14.9911 0.827713L15.4534 4.21856C15.7548 6.42879 15.6764 8.67439 15.2215 10.8583C14.5893 13.8936 12.1236 16.2079 9.05423 16.6464L3.32223 17.4647C3.37766 17.8215 3.41319 18.0245 3.41319 18.0245L2.66137 18.7764C2.40855 19.0183 2.36554 19.4066 2.55936 19.698C2.67803 19.8653 2.86437 19.9718 3.06891 19.9891C3.27327 20.0063 3.47491 19.9325 3.61993 19.7875L4.41358 18.9943C6.23005 19.4935 8.10553 19.7462 9.9895 19.7453C11.8735 19.7462 13.7489 19.4935 15.5656 18.9943Z" fill="#8E662B"/>
</g>
<defs>
<clipPath id="clip0_200_1616">
<rect width="20" height="20" fill="white"/>
</clipPath>
</defs>
</svg>
