<svg width="20" height="20" viewBox="0 0 20 20" fill="none" xmlns="http://www.w3.org/2000/svg">
<path d="M17.1533 4.73455C17.1689 4.85955 17.1721 4.98767 17.1658 5.11267C16.6564 5.1283 16.2908 5.41892 16.2283 5.47205C16.0596 5.40642 15.4471 5.19705 14.8346 5.48455C14.6596 5.56892 14.5252 5.67205 14.4221 5.76892C14.3689 5.6033 14.2939 5.44392 14.2002 5.29392C14.4596 5.09392 15.3346 4.3908 15.5533 3.17517C15.5627 3.11892 15.5752 3.0533 15.5877 2.97205H15.5908C15.8846 3.01267 16.1689 3.13142 16.4033 3.30955C16.8346 3.65017 17.0971 4.18767 17.1533 4.73455Z" fill="#486C00"/>
<path d="M10.6223 1.69391C10.141 1.65329 9.64414 1.80329 9.26914 2.10641C8.80977 2.48141 8.54727 3.08454 8.58477 3.67516C8.06914 3.83766 7.61602 4.18766 7.31602 4.63766C7.23477 4.40016 7.14414 4.20329 7.05664 4.03141C7.51914 3.45329 7.65977 2.63141 7.41602 1.93454C7.31289 1.63454 7.14102 1.35954 6.91602 1.13141L6.91914 1.12829C7.41914 0.762661 8.05039 0.562661 8.67539 0.606411C9.44102 0.659536 10.1691 1.07516 10.6223 1.69391Z" fill="#486C00"/>
<path d="M15.5877 8.58458C12.1814 10.2315 9.19395 12.9127 6.74707 15.8346C7.30332 14.794 7.79395 13.8221 8.21895 12.944C8.75645 12.4221 9.2502 12.0658 9.63144 11.8252C10.4221 11.3283 10.9002 11.2158 11.4002 10.6627C11.9596 10.0502 12.1564 9.31583 12.2346 8.80333C12.2971 8.80333 13.5658 8.79083 14.2252 7.70021C14.5783 7.11271 14.6439 6.40646 14.4221 5.76896C14.5252 5.67208 14.6596 5.56896 14.8346 5.48458C15.4471 5.19708 16.0596 5.40646 16.2283 5.47208C16.2908 5.41896 16.6564 5.12833 17.1658 5.11271C17.2564 5.10958 17.3502 5.11583 17.4502 5.13458C18.0033 5.24083 18.2971 5.65021 18.4127 5.80646C18.7877 6.32521 18.7658 6.87833 18.7596 7.05021C18.7127 7.99083 18.0189 8.55958 17.8971 8.65958C18.3346 9.24083 18.1064 10.1252 17.5939 10.6408C17.0783 11.1596 16.3596 11.3971 15.6627 11.6221C16.0252 11.5815 16.3689 11.894 16.4377 12.2502C16.5033 12.6096 16.3471 12.9846 16.0971 13.2471C15.8439 13.5127 15.5158 13.6877 15.1814 13.8377C13.6189 14.5377 11.9033 14.769 10.1971 14.9408C10.4814 14.4377 10.7689 13.9346 11.0877 13.4533C12.3127 11.6065 13.9596 10.0846 15.5877 8.58458Z" fill="#92C538"/>
<path d="M11.0877 13.4533C10.7689 13.9346 10.4814 14.4377 10.197 14.9408C11.0128 14.8587 11.8303 14.7613 12.6326 14.6072C12.6637 13.184 13.1342 11.8333 14.2255 10.7586C14.6073 10.3826 15.0371 10.0699 15.3807 9.65389C15.6807 9.29073 15.9337 8.86717 16.1005 8.42624C16.4747 7.43709 16.4472 6.36303 15.997 5.40292C15.9964 5.40167 15.9963 5.40042 15.9957 5.39917C15.7208 5.32932 15.2788 5.27612 14.8346 5.48463C14.6596 5.56901 14.5252 5.67213 14.4221 5.76901C14.6439 6.40651 14.5783 7.11276 14.2252 7.70026C13.5658 8.79088 12.2971 8.80338 12.2346 8.80338C12.1564 9.31588 11.9596 10.0503 11.4002 10.6628C10.9002 11.2159 10.4221 11.3284 9.63144 11.8253C9.2502 12.0659 8.75644 12.4221 8.21894 12.944C7.79394 13.8221 7.30332 14.794 6.74707 15.8346C9.19395 12.9128 12.1814 10.2315 15.5877 8.58463C13.9595 10.0846 12.3127 11.6065 11.0877 13.4533Z" fill="#609000"/>
<path d="M10.3253 8.13454C10.7971 6.84704 11.5065 5.02204 12.4878 2.84391C11.9346 3.51891 11.3878 4.20329 10.8534 4.89391C10.7346 5.04391 10.619 5.19391 10.5034 5.34391C8.50964 7.95954 8.50339 8.28141 6.78464 10.6908C6.31276 9.60016 6.55026 8.21579 7.40964 7.38141C6.95026 6.78141 6.80651 5.94704 7.03464 5.22516C7.10026 5.01891 7.19401 4.81891 7.31589 4.64079C7.31589 4.63766 7.31589 4.63766 7.31589 4.63766C7.61589 4.18766 8.06901 3.83766 8.58464 3.67516C8.54714 3.08454 8.80964 2.48141 9.26901 2.10641C9.64401 1.80329 10.1409 1.65329 10.6221 1.69391C10.7284 1.70329 10.8346 1.72204 10.9409 1.75016C11.4971 0.700162 12.7721 0.0814119 13.944 0.290787C14.719 0.431412 15.1596 1.05016 15.2003 1.10329C15.7003 1.76579 15.6565 2.53454 15.5909 2.97204H15.5878C15.5753 3.05329 15.5628 3.11891 15.5534 3.17516C15.3346 4.39079 14.4596 5.09391 14.2003 5.29391C14.294 5.44391 14.369 5.60329 14.4221 5.76891C14.644 6.40641 14.5784 7.11266 14.2253 7.70016C13.5659 8.79079 12.2971 8.80329 12.2346 8.80329C12.1565 9.31579 11.9596 10.0502 11.4003 10.6627C10.9003 11.2158 10.4221 11.3283 9.63151 11.8252C9.25026 12.0658 8.75651 12.422 8.21901 12.9439C9.62526 10.0377 10.3253 8.13454 10.3253 8.13454Z" fill="#92C538"/>
<path d="M7.05601 4.03148C7.14351 4.20335 7.23414 4.40023 7.31539 4.63773V4.64085C7.19351 4.81898 7.09976 5.01898 7.03414 5.22523C6.80601 5.9471 6.94976 6.78148 7.40914 7.38148C6.54976 8.21585 6.31226 9.60023 6.78414 10.6909C6.67789 10.8377 6.56539 10.994 6.44664 11.1596C6.44664 11.1627 5.91539 11.894 5.27789 12.9221L5.27476 12.919C5.64664 11.7315 5.92164 10.519 6.04351 9.28148C6.24351 7.2221 6.02476 5.23148 5.14351 3.35648C5.17789 4.31898 5.13726 5.28148 5.01851 6.2346V6.23773C4.76851 8.27523 4.17789 10.2659 3.26851 12.1034C3.13726 12.369 2.99664 12.6346 2.85914 12.9002C2.27789 12.3502 1.92164 11.569 1.89039 10.769C1.85914 9.85023 2.25601 8.92835 2.94664 8.3221C2.85289 8.03773 2.68101 7.3971 2.85289 6.6096C3.04351 5.71585 3.56226 5.1596 3.77164 4.95648C3.35289 4.38148 3.07476 3.6971 3.04976 2.99085C3.02476 2.2846 3.27476 1.55648 3.78101 1.06273C4.31851 0.550227 5.11851 0.331477 5.83726 0.503352C6.24976 0.600227 6.62476 0.825227 6.91539 1.13148C7.14039 1.3596 7.31226 1.6346 7.41539 1.9346C7.65914 2.63148 7.51851 3.45335 7.05601 4.03148Z" fill="#92C538"/>
<path d="M7.03477 5.22514C7.10039 5.01889 7.19414 4.81889 7.31602 4.64077C7.31602 4.63764 7.31602 4.63764 7.31602 4.63764C7.23477 4.40014 7.14414 4.20327 7.05664 4.03139C7.51914 3.45327 7.65977 2.63139 7.41602 1.93452C7.31289 1.63452 7.14102 1.35952 6.91602 1.13139C6.70621 0.910298 6.45144 0.733657 6.17133 0.614868C6.23414 0.951001 6.23156 1.29276 6.11719 1.65073C5.92961 2.23776 5.60473 2.75581 5.49004 3.36866C5.45031 3.58092 5.43168 3.79553 5.42121 4.01088C6.0682 5.69241 6.22105 7.45979 6.04414 9.28135C5.92227 10.5189 5.64727 11.7314 5.27539 12.9189L5.27852 12.922C5.91602 11.8939 6.44727 11.1626 6.44727 11.1595C6.56602 10.9939 6.67852 10.8376 6.78477 10.6907C6.31289 9.6001 6.55039 8.21573 7.40977 7.38135C6.95039 6.78139 6.80664 5.94702 7.03477 5.22514Z" fill="#609000"/>
<path d="M6.74662 15.8346C6.74662 15.8346 6.74662 15.8377 6.7435 15.8377C6.44975 16.3877 6.13725 16.9596 5.806 17.5439C5.61225 17.8908 5.17475 18.6377 4.481 18.7158C4.09037 18.7596 3.64037 18.5846 3.40287 18.2533C3.08412 17.8064 3.23412 17.1971 3.34662 16.8283C3.50912 16.3033 3.74662 15.7346 4.02162 15.1689C4.40912 14.3752 4.86537 13.5877 5.27787 12.9221L5.27475 12.9189C5.64662 11.7314 5.92162 10.5189 6.0435 9.28145C6.2435 7.22207 6.02475 5.23145 5.1435 3.35645C5.17787 4.31895 5.13725 5.28145 5.0185 6.23457V6.2377C4.7685 8.2752 4.17787 10.2658 3.2685 12.1033C3.13725 12.3689 2.99662 12.6346 2.85912 12.9002C2.43725 13.6971 2.0185 14.4971 1.781 15.3627C1.46537 16.5158 1.531 17.8596 2.30287 18.7721C3.17475 19.8002 4.756 20.0096 6.0185 19.5346C7.281 19.0627 8.25912 18.0346 9.01537 16.9189C9.4435 16.2814 9.81537 15.6096 10.1966 14.9408C10.481 14.4377 10.7685 13.9346 11.0872 13.4533C12.3122 11.6064 13.9591 10.0846 15.5872 8.58457C12.181 10.2314 9.1935 12.9127 6.74662 15.8346Z" fill="#BEDC88"/>
<path d="M2.72556 15.179C2.70388 15.179 2.68193 15.1745 2.66087 15.165C2.58244 15.1293 2.54767 15.0365 2.58337 14.9581L3.90388 12.0574C3.9399 11.9786 4.03267 11.9451 4.1108 11.9799C4.18955 12.0156 4.224 12.1084 4.1883 12.1868L2.86779 15.0875C2.84154 15.1452 2.78478 15.179 2.72556 15.179Z" fill="#92C538"/>
<path d="M3.39264 15.1305C3.37342 15.1305 3.35389 15.1269 3.33495 15.1195C3.25467 15.0875 3.21561 14.9969 3.24737 14.9166C3.38807 14.5626 3.55745 14.2172 3.75061 13.8903C3.79487 13.8159 3.89131 13.7915 3.96456 13.8351C4.03901 13.879 4.06374 13.9749 4.01979 14.049C3.83487 14.3622 3.67249 14.6929 3.53792 15.032C3.51346 15.0933 3.4546 15.1305 3.39264 15.1305Z" fill="#92C538"/>
<path d="M6.7774 17.1129C6.74595 17.1129 6.71423 17.1034 6.68677 17.0839C6.61626 17.0335 6.60009 16.9362 6.65013 16.866C7.04044 16.3191 7.48326 15.8043 7.96634 15.3358C8.0283 15.276 8.12716 15.2779 8.18728 15.3395C8.24709 15.4015 8.24556 15.5003 8.18361 15.5605C7.71423 16.0155 7.28396 16.516 6.90462 17.0473C6.87416 17.09 6.82591 17.1129 6.7774 17.1129Z" fill="#92C538"/>
<path d="M7.40925 17.6171C7.37811 17.6171 7.34698 17.608 7.31983 17.589C7.24905 17.5396 7.23163 17.4422 7.28108 17.3715L8.87714 15.0851C8.9269 15.0137 9.02456 14.9978 9.09471 15.0463C9.1655 15.0958 9.18292 15.1931 9.13346 15.2639L7.53741 17.5503C7.5069 17.594 7.45835 17.6171 7.40925 17.6171Z" fill="#92C538"/>
<path d="M4.61242 9.26084C4.54254 9.26084 4.47875 9.21385 4.46106 9.14303C4.31762 8.576 3.89496 7.84147 3.53028 7.38612C3.47656 7.31865 3.48723 7.22041 3.55469 7.16639C3.62153 7.1133 3.71981 7.12365 3.77442 7.1908C4.16688 7.68061 4.60969 8.45635 4.76379 9.06612C4.78516 9.15002 4.73449 9.23487 4.65086 9.25592C4.63778 9.25932 4.62492 9.26084 4.61242 9.26084Z" fill="#BEDC88"/>
<path d="M5.16486 6.60015C5.11146 6.60015 5.05959 6.57268 5.03029 6.52323C4.85693 6.22936 4.50182 5.74999 4.26166 5.50616C4.20123 5.44483 4.20186 5.34565 4.2635 5.28522C4.32514 5.22511 4.424 5.22542 4.48443 5.28706C4.74232 5.5489 5.11299 6.0487 5.29943 6.36456C5.34338 6.4387 5.31865 6.53456 5.2442 6.5785C5.21951 6.59315 5.19201 6.60015 5.16486 6.60015Z" fill="#BEDC88"/>
<path d="M5.64554 5.61439C5.62843 5.61439 5.61105 5.61166 5.59398 5.60553C5.5125 5.57713 5.46945 5.48803 5.49816 5.40654C5.62269 5.05041 5.96281 4.43076 6.20941 4.14392C6.26558 4.0783 6.36414 4.07131 6.42976 4.12744C6.49507 4.18361 6.50269 4.28217 6.44625 4.34779C6.22531 4.60475 5.90468 5.19049 5.793 5.50971C5.77035 5.57412 5.70992 5.61439 5.64554 5.61439Z" fill="#BEDC88"/>
<path d="M3.9301 11.1209C3.86084 11.1209 3.79764 11.0748 3.77905 11.0046C3.71252 10.7534 3.52178 10.2947 3.35545 10.0942C3.30022 10.0276 3.30936 9.92904 3.37588 9.87412C3.44241 9.8192 3.54069 9.82803 3.59592 9.89455C3.79092 10.1296 4.00303 10.6298 4.08116 10.9246C4.10311 11.0079 4.05338 11.0933 3.97006 11.1156C3.95666 11.1194 3.94323 11.1209 3.9301 11.1209Z" fill="#BEDC88"/>
<path d="M10.8675 5.32503C10.8632 5.32503 10.8586 5.32471 10.8544 5.3244C10.7683 5.31737 10.7045 5.24202 10.7116 5.15596C10.7518 4.6628 10.66 3.89214 10.4726 3.43405C10.44 3.35409 10.4781 3.26284 10.5581 3.23018C10.6384 3.19753 10.7293 3.23569 10.762 3.31565C10.9679 3.81921 11.0674 4.6396 11.0228 5.18159C11.0161 5.26307 10.9477 5.32503 10.8675 5.32503Z" fill="#BEDC88"/>
<path d="M9.31929 7.44491C9.31531 7.44491 9.31136 7.44491 9.30769 7.4446C9.22164 7.43819 9.15695 7.36343 9.16304 7.27737C9.1966 6.81929 9.00054 6.14913 8.80828 5.73198C8.77226 5.65355 8.80644 5.56077 8.88488 5.52476C8.9621 5.48874 9.05609 5.52261 9.0921 5.60136C9.30632 6.06612 9.51218 6.78941 9.47496 7.29995C9.46882 7.38238 9.40015 7.44491 9.31929 7.44491Z" fill="#BEDC88"/>
<path d="M11.1768 5.46604C11.1289 5.46604 11.0819 5.44409 11.0511 5.40257C10.9998 5.33331 11.0145 5.23534 11.0841 5.18405C11.5345 4.8514 12.4107 4.46464 12.9637 4.38132C13.0448 4.3694 13.1285 4.4271 13.1413 4.51253C13.1541 4.59768 13.0955 4.67733 13.0101 4.69015C12.5075 4.76612 11.6795 5.13276 11.2696 5.4355C11.2418 5.45597 11.2092 5.46604 11.1768 5.46604Z" fill="#BEDC88"/>
<path d="M10.381 7.34328C10.3279 7.34328 10.276 7.31613 10.2467 7.26699C10.2024 7.19254 10.2268 7.09672 10.301 7.05277C10.8235 6.74242 11.7974 6.50203 12.4056 6.4825C12.4959 6.47977 12.564 6.54781 12.5667 6.63387C12.5695 6.71992 12.5017 6.79227 12.4154 6.795C11.8599 6.8127 10.9379 7.03781 10.4609 7.32133C10.4359 7.33625 10.4081 7.34328 10.381 7.34328Z" fill="#BEDC88"/>
<path d="M9.52447 9.60318C9.46525 9.60318 9.40849 9.56931 9.38224 9.51162C9.34654 9.43318 9.38103 9.34072 9.45974 9.3047C9.90103 9.1033 10.6881 8.99005 11.173 8.97693H11.1772C11.2618 8.97693 11.3311 9.04408 11.3335 9.12892C11.3356 9.21529 11.2676 9.28701 11.1815 9.28943C10.7381 9.30134 9.99283 9.40478 9.58908 9.58912C9.56842 9.59861 9.54615 9.60318 9.52447 9.60318Z" fill="#BEDC88"/>
<path d="M8.28219 8.81764C8.19856 8.81764 8.1293 8.75143 8.12594 8.66717C8.11313 8.32081 8.0043 7.81116 7.8502 7.50049C7.81204 7.42327 7.84348 7.3296 7.92098 7.29116C7.99758 7.25331 8.09157 7.28413 8.13032 7.36194C8.30368 7.71198 8.42379 8.26526 8.43844 8.65557C8.44149 8.74194 8.37434 8.81424 8.28797 8.8176C8.28618 8.81764 8.28403 8.81764 8.28219 8.81764Z" fill="#BEDC88"/>
<path d="M15.3079 10.5923C15.2932 10.5923 15.2786 10.5902 15.2639 10.5859C14.7701 10.4413 13.933 10.412 13.4307 10.5215C13.3458 10.5398 13.2631 10.4867 13.2448 10.4022C13.2265 10.318 13.2799 10.2346 13.3641 10.2163C13.9181 10.0955 14.8086 10.1266 15.3518 10.2862C15.4348 10.3103 15.4821 10.3973 15.4577 10.48C15.4379 10.548 15.3756 10.5923 15.3079 10.5923Z" fill="#BEDC88"/>
<path d="M13.8431 9.93005C13.834 9.93005 13.8245 9.92916 13.8153 9.92763C13.7302 9.91236 13.6737 9.83119 13.689 9.74634L13.9148 8.51556C13.9297 8.43041 14.0124 8.3758 14.096 8.38923C14.1812 8.40451 14.2377 8.48568 14.2224 8.57052L13.9966 9.8013C13.9832 9.87697 13.9173 9.93005 13.8431 9.93005Z" fill="#BEDC88"/>
<path d="M14.0146 11.9851C13.996 11.9851 13.9771 11.9817 13.9587 11.9747C13.5355 11.8129 12.8457 11.7064 12.3943 11.6579C12.3086 11.6488 12.2466 11.5719 12.2558 11.4858C12.2649 11.4001 12.3437 11.3393 12.4279 11.3473C12.9058 11.3985 13.6221 11.5114 14.0704 11.683C14.151 11.7138 14.1913 11.8041 14.1605 11.8847C14.1367 11.9469 14.0775 11.9851 14.0146 11.9851Z" fill="#BEDC88"/>
<path d="M11.1765 13.0992C11.1018 13.0992 11.0356 13.0452 11.0227 12.9689C11.0084 12.8837 11.0658 12.8032 11.1509 12.7888C11.8967 12.6634 12.9426 12.6532 13.6957 12.7051C13.7818 12.7112 13.8468 12.7856 13.841 12.8717C13.8349 12.9578 13.7574 13.0228 13.6744 13.017C12.9475 12.9666 11.9248 12.9756 11.2027 13.0971C11.194 13.0986 11.1854 13.0992 11.1765 13.0992Z" fill="#BEDC88"/>
<path d="M4.02234 15.169C4.40984 14.3752 4.86609 13.5877 5.27859 12.9221C5.91609 11.894 6.44734 11.1627 6.44734 11.1596C6.56609 10.994 6.67859 10.8377 6.78484 10.6909C8.50359 8.28149 8.50984 7.95962 10.5036 5.34399C10.6192 5.19399 10.7348 5.04399 10.8536 4.89399C11.388 4.20337 11.9348 3.51899 12.488 2.84399C11.5067 5.02212 10.7973 6.84712 10.3255 8.13462C10.3255 8.13462 9.62547 10.0377 8.21922 12.944C7.79422 13.8221 7.30359 14.794 6.74734 15.8346C6.74734 15.8346 6.74734 15.8377 6.74422 15.8377C6.45047 16.3877 6.13797 16.9596 5.80672 17.544C5.61297 17.8909 5.17547 18.6377 4.48172 18.7159C4.09109 18.7596 3.64109 18.5846 3.40359 18.2534C3.08484 17.8065 3.23484 17.1971 3.34734 16.8284C3.50984 16.3034 3.74734 15.7346 4.02234 15.169Z" fill="#D5EF9C"/>
<path d="M4.24317 16.8957C4.22699 16.8957 4.21051 16.8933 4.19434 16.8878C4.11254 16.8609 4.0677 16.7727 4.09485 16.6906C4.40949 15.7309 4.87945 14.8367 5.49164 14.0332C5.54383 13.9639 5.64301 13.9511 5.71047 14.0036C5.77914 14.0557 5.79258 14.1537 5.74008 14.2224C5.14926 14.9981 4.69578 15.8615 4.39152 16.7883C4.37012 16.8539 4.30879 16.8957 4.24317 16.8957Z" fill="#92C538"/>
<path d="M5.086 16.7143C5.06405 16.7143 5.04205 16.7097 5.021 16.7003C4.94256 16.6643 4.90807 16.5715 4.94377 16.4931L5.43725 15.414C5.47326 15.3352 5.56635 15.3017 5.64448 15.3367C5.72291 15.3728 5.75741 15.4655 5.7217 15.544L5.22823 16.6231C5.20198 16.6805 5.14522 16.7143 5.086 16.7143Z" fill="#92C538"/>
</svg>
