<svg width="19" height="19" viewBox="0 0 19 19" fill="none" xmlns="http://www.w3.org/2000/svg">
<g clip-path="url(#clip0_289_1159)">
<path d="M0 8.03459L0.00857076 11.6088C0.0237458 12.7415 0.386278 13.8595 0.943303 14.857C1.82635 16.4383 3.46377 17.8982 6.39705 17.8982C10.8668 17.8982 10.816 15.4995 13.1525 14.912C15.489 14.3246 16.8274 14.5101 18.2835 13.0445C18.3226 13.0051 18.3616 12.9616 18.4 12.9154C18.7946 12.4408 19 11.8458 19 11.2376V7.11584L0 8.03459Z" fill="#FA184B"/>
<path d="M9.5 17.3099C11.0732 16.5604 11.5551 15.3123 13.1525 14.9107C15.489 14.3232 16.8273 14.5088 18.2834 13.0431C18.3226 13.0037 18.3616 12.9602 18.4 12.914C18.7945 12.4394 19 11.8444 19 11.2362V7.1145L9.5 7.57384V17.3099Z" fill="#BD0533"/>
<path d="M18.1001 5.62864C18.1001 5.62864 16.6173 1.65845 9.1074 1.65845C1.59752 1.65845 0.232992 6.45677 0.603724 8.59434C0.950116 10.5917 2.36284 13.9039 6.5722 13.9039C10.7816 13.9039 10.7337 11.56 12.9341 10.986C15.1344 10.412 16.5754 10.7466 17.7661 9.16116C19.056 7.44367 18.1001 5.62864 18.1001 5.62864Z" fill="#FF5478"/>
<path d="M9.5 2.01599V13.6812C10.977 12.9486 11.4316 11.7317 12.934 11.3398C15.1343 10.7657 16.5753 11.1003 17.766 9.51489C19.0559 7.7974 18.1 5.9824 18.1 5.9824C18.1 5.9824 16.669 2.15153 9.5 2.01599Z" fill="#FA184B"/>
<path d="M18.0998 5.90841C18.0998 5.90841 16.8515 2.56927 10.8509 2.01599C10.767 2.67323 10.1636 8.59021 15.2534 10.83C16.2527 10.6503 17.054 10.3887 17.7658 9.4409C19.0556 7.72341 18.0998 5.90841 18.0998 5.90841Z" fill="#BD0533"/>
<path d="M11.4432 5.05495C15.3009 5.07365 17.2522 5.81022 18.4405 6.69167C18.3561 6.05577 18.1312 5.62864 18.1312 5.62864C18.1312 5.62864 16.6483 1.65845 9.13845 1.65845C7.61456 1.65845 6.34375 1.85602 5.28906 2.18887C6.08303 3.35305 7.85131 5.03751 11.4432 5.05495Z" fill="#FFA2B2"/>
<path d="M9.5 1.66162V4.86167C10.0795 4.9811 10.7249 5.05145 11.4436 5.05494C15.3013 5.07364 17.2526 5.8102 18.4409 6.69165C18.3565 6.05575 18.1316 5.62862 18.1316 5.62862C18.1316 5.62862 16.6964 1.78647 9.5 1.66162Z" fill="#FF5F66"/>
<path d="M6.49689 9.87206C7.61106 9.87206 8.51428 9.19071 8.51428 8.35022C8.51428 7.50972 7.61106 6.82837 6.49689 6.82837C5.38271 6.82837 4.47949 7.50972 4.47949 8.35022C4.47949 9.19071 5.38271 9.87206 6.49689 9.87206Z" fill="white"/>
<path d="M6.57606 14.4604C5.50698 14.4604 4.53303 14.2582 3.68126 13.8592C2.93223 13.5083 2.27302 13.0039 1.72193 12.3601C0.604284 11.0542 0.201755 9.49979 0.0612468 8.68946C-0.14011 7.52803 0.11089 5.59386 1.4811 3.96512C2.21499 3.09268 3.18119 2.40672 4.35286 1.92621C5.68652 1.37927 7.28721 1.10193 9.11045 1.10193C10.879 1.10193 12.4729 1.31913 13.8478 1.74744C14.9665 2.09599 15.9452 2.58467 16.7568 3.20002C17.865 4.04033 18.4358 4.96467 18.6097 5.40319C18.7509 5.69177 19.6104 7.63188 18.2113 9.49537C17.2271 10.8062 16.0749 10.9883 14.7409 11.1992C14.2198 11.2816 13.6811 11.3668 13.0764 11.5246C12.3758 11.7074 11.9344 12.1161 11.4234 12.5895C10.5234 13.423 9.40334 14.4604 6.57606 14.4604ZM9.11045 2.21501C6.03384 2.21501 3.69005 3.06801 2.3325 4.68176C1.20847 6.01795 0.997092 7.57333 1.15764 8.49924C1.27863 9.19703 1.62261 10.5324 2.56721 11.6362C3.53897 12.7717 4.88773 13.3474 6.57602 13.3474C8.96723 13.3474 9.79303 12.5825 10.6673 11.7728C11.2363 11.2458 11.8246 10.7008 12.7954 10.4475C13.4531 10.2759 14.0449 10.1823 14.5671 10.0998C15.7962 9.90555 16.6081 9.77717 17.3215 8.82697C18.375 7.42381 17.6385 5.94756 17.6067 5.88538C17.5947 5.8626 17.5884 5.84916 17.5799 5.82557C17.5607 5.77863 17.1892 4.90145 16.0152 4.03524C13.9764 2.5308 11.135 2.21501 9.11045 2.21501Z" fill="#FFDEE4"/>
<path d="M16.7568 3.19609C15.9452 2.58074 14.9665 2.09202 13.8478 1.74351C12.5747 1.34688 11.1135 1.13169 9.50004 1.10193V2.21501C11.4878 2.25531 14.1041 2.62107 16.0153 4.03131C17.1893 4.89751 17.5607 5.7747 17.5799 5.82163C17.5884 5.84527 17.5947 5.85866 17.6067 5.88144C17.6386 5.94363 18.375 7.41988 17.3215 8.82303C16.6082 9.7732 15.7962 9.90158 14.5672 10.0959C14.045 10.1784 13.4532 10.272 12.7955 10.4436C11.8246 10.6969 11.2363 11.2419 10.6673 11.7689C10.3075 12.1021 9.95588 12.4276 9.5 12.6955V13.9356C10.3705 13.5606 10.93 13.0425 11.4233 12.5856C11.9344 12.1122 12.3757 11.7035 13.0763 11.5206C13.681 11.3628 14.2198 11.2776 14.7409 11.1953C16.075 10.9844 17.2272 10.8022 18.2113 9.49144C19.6103 7.62795 18.7509 5.68784 18.6097 5.39926C18.4359 4.96074 17.8651 4.03643 16.7568 3.19609Z" fill="#FFC6CF"/>
</g>
<defs>
<clipPath id="clip0_289_1159">
<rect width="19" height="19" fill="white"/>
</clipPath>
</defs>
</svg>
