<svg width="28" height="28" viewBox="0 0 28 28" fill="none" xmlns="http://www.w3.org/2000/svg">
<path d="M11.1923 4.59667C11.2973 3.96433 11.8457 3.5 12.4873 3.5H15.5125C16.1542 3.5 16.7025 3.96433 16.8075 4.59667L17.056 6.09117C17.1295 6.5275 17.4212 6.8915 17.8085 7.10617C17.8948 7.15283 17.98 7.203 18.0652 7.25433C18.4443 7.483 18.9052 7.55417 19.3193 7.399L20.7392 6.867C21.0301 6.75758 21.3505 6.75498 21.6432 6.85966C21.9359 6.96435 22.1819 7.16953 22.3375 7.43867L23.8495 10.0602C24.0047 10.3293 24.0595 10.6448 24.0039 10.9505C23.9484 11.2562 23.7862 11.5323 23.5462 11.7297L22.376 12.6945C22.0342 12.9757 21.865 13.4097 21.8743 13.8518C21.876 13.951 21.876 14.0502 21.8743 14.1493C21.865 14.5903 22.0342 15.0243 22.376 15.3055L23.5473 16.2703C24.042 16.6787 24.1703 17.3845 23.8507 17.9387L22.3363 20.5602C22.181 20.8292 21.9352 21.0345 21.6428 21.1394C21.3503 21.2443 21.0301 21.242 20.7392 21.133L19.3193 20.601C18.9052 20.4458 18.4443 20.517 18.064 20.7457C17.9794 20.7971 17.8939 20.8469 17.8073 20.895C17.4212 21.1085 17.1295 21.4725 17.056 21.9088L16.8075 23.4033C16.7025 24.0368 16.1542 24.5 15.5125 24.5H12.4862C11.8445 24.5 11.2973 24.0357 11.1912 23.4033L10.9427 21.9088C10.8703 21.4725 10.5787 21.1085 10.1913 20.8938C10.1048 20.8461 10.0193 20.7967 9.93468 20.7457C9.55551 20.517 9.09468 20.4458 8.67934 20.601L7.25951 21.133C6.96869 21.2421 6.6486 21.2445 6.35616 21.1399C6.06372 21.0352 5.81787 20.8302 5.66234 20.5613L4.14918 17.9398C3.99394 17.6707 3.93923 17.3552 3.99478 17.0495C4.05032 16.7438 4.21252 16.4677 4.45251 16.2703L5.62384 15.3055C5.96451 15.0255 6.13368 14.5903 6.12551 14.1493C6.12369 14.0502 6.12369 13.951 6.12551 13.8518C6.13368 13.4085 5.96451 12.9757 5.62384 12.6945L4.45251 11.7297C4.21281 11.5324 4.0508 11.2565 3.99526 10.9511C3.93973 10.6456 3.99426 10.3304 4.14918 10.0613L5.66234 7.43983C5.81773 7.17049 6.06369 6.96507 6.35641 6.86016C6.64913 6.75525 6.96958 6.75768 7.26068 6.867L8.67934 7.399C9.09468 7.55417 9.55551 7.483 9.93468 7.25433C10.0187 7.203 10.105 7.154 10.1913 7.105C10.5787 6.8915 10.8703 6.5275 10.9427 6.09117L11.1923 4.59667Z" stroke="#FB7B0D" stroke-width="1.75" stroke-linecap="round" stroke-linejoin="round"/>
<path d="M17.5 14C17.5 14.9283 17.1313 15.8185 16.4749 16.4749C15.8185 17.1313 14.9283 17.5 14 17.5C13.0717 17.5 12.1815 17.1313 11.5251 16.4749C10.8687 15.8185 10.5 14.9283 10.5 14C10.5 13.0717 10.8687 12.1815 11.5251 11.5251C12.1815 10.8687 13.0717 10.5 14 10.5C14.9283 10.5 15.8185 10.8687 16.4749 11.5251C17.1313 12.1815 17.5 13.0717 17.5 14Z" stroke="#FB7B0D" stroke-width="1.75" stroke-linecap="round" stroke-linejoin="round"/>
</svg>
